<?xml version="1.0" encoding="UTF-8"?><svg id="a" xmlns="http://www.w3.org/2000/svg" width="128" height="128" viewBox="0 0 128 128"><rect x="0" width="128" height="128" fill="#c084fc"/><path d="m97,62.5c0,1.6581-1.3419,3-3,3h-15c-1.3185,0-2.4813-.8583-2.8683-2.1183l-3.0264-9.8349-9.2196,32.2764c-.3516,1.2246-1.4355,2.0946-2.7042,2.1708-.0615.003-.123.006-.1815.006-1.2012,0-2.2938-.7179-2.7657-1.8369l-9.1641-21.7647-3.2841,8.2149c-.4569,1.1397-1.5585,1.8867-2.7861,1.8867h-9c-1.6581,0-3-1.3419-3-3s1.3419-3,3-3h6.9696l5.244-13.1133c.4542-1.131,1.5411-1.875,2.7597-1.8867,1.1631-.0411,2.3202.7149,2.7921,1.8369l8.6925,20.6427,9.6564-33.8028c.3663-1.2774,1.5264-2.1621,2.8563-2.1768h.0294c1.3155,0,2.4786.8583,2.8683,2.1183l5.3466,17.3817h12.7851c1.6581,0,3,1.3419,3.00001,3.00001Z" fill="#fff"/></svg>