<?xml version="1.0" encoding="UTF-8"?><svg id="a" xmlns="http://www.w3.org/2000/svg" width="512" height="512" viewBox="0 0 512 512"><rect width="512" height="512" fill="#7e22ce"/><path d="m293.64706,128h-75.29412c-49.82169,0-90.35294,40.53125-90.35294,90.35294v75.29412c0,49.82169,40.53125,90.35294,90.35294,90.35294h75.29412c49.82169,0,90.35294-40.53125,90.35294-90.35294v-75.29412c0-49.82169-40.53125-90.35294-90.35294-90.35294Zm75.29412,165.64706c0,41.51654-33.77757,75.29412-75.29412,75.29412h-75.29412c-41.51654,0-75.29412-33.77757-75.29412-75.29412v-75.29412c0-41.51654,33.77757-75.29412,75.29412-75.29412h75.29412c41.51654,0,75.29412,33.77757,75.29412,75.29412v75.29412Zm-45.28194-41.47277c-1.90269-34.40097-29.83019-62.15499-64.24173-63.85398-38.59191-1.90545-70.65085,28.67268-71.17509,66.73265-.52275,37.94887,30.78343,68.71232,68.73587,68.71232h59.25758c4.3241,0,7.79745-3.64602,7.5131-8.03125-.25954-4.00172-3.76126-7.02757-7.77137-7.02757-6.15843,0-9.60064-7.03228-5.88706-11.94508,9.29021-12.28998,14.49563-27.82904,13.5687-44.58709Zm-67.65866,41.47335c-20.75896,0-37.64706-16.8881-37.64706-37.64706,0-5.98621,1.44106-11.6296,3.93773-16.65993,1.0517,7.28883,7.30572,12.89522,14.8858,12.89522,8.31675,0,15.05882-6.74207,15.05882-15.05882,0-7.58008-5.60639-13.8341-12.89534-14.8858,5.03033-2.49667,10.67371-3.93773,16.66004-3.93773,20.75896,0,37.64706,16.88844,37.64706,37.64706s-16.8881,37.64706-37.64706,37.64706Z" fill="#fff"/></svg>