<?xml version="1.0" encoding="utf-8"?>
<!-- Generator: Adobe Illustrator 27.6.1, SVG Export Plug-In . SVG Version: 6.00 Build 0)  -->
<svg version="1.1" id="Layer_1" xmlns="http://www.w3.org/2000/svg" xmlns:xlink="http://www.w3.org/1999/xlink" x="0px" y="0px"
	 viewBox="0 0 500 500" style="enable-background:new 0 0 500 500;" xml:space="preserve">
<style type="text/css">
	.st0{fill:#FE85B5;}
	.st1{fill:#D35789;}
	.st2{fill:url(#SVGID_1_);}
	.st3{fill:url(#SVGID_00000059297291925484972280000012144204660939295151_);}
	.st4{fill:url(#SVGID_00000150819934937125805180000004424282910281809282_);}
	.st5{fill:url(#SVGID_00000005233756778828767280000002244293626212604831_);}
	.st6{fill:url(#SVGID_00000103972656087651219010000004779564305551541133_);}
	.st7{fill:#51BE9F;}
	.st8{fill:#167251;}
	.st9{fill:#158962;}
	.st10{fill:url(#SVGID_00000066514330485256144310000009547074121067347846_);}
	.st11{fill:url(#SVGID_00000183939410955648291230000014416309343550321810_);}
	.st12{fill:url(#SVGID_00000042724069895035897070000012328727459007475388_);}
	.st13{fill:url(#SVGID_00000148636081872933256840000002213787398836013735_);}
	.st14{fill:url(#SVGID_00000068674310967617141470000017644653893402235050_);}
	.st15{fill:#137F58;}
	.st16{fill:#80BEF0;}
	.st17{fill:#4393C9;}
	.st18{fill:#387EB2;}
	.st19{fill:#2B6BA0;}
	.st20{fill:url(#SVGID_00000140004508916359645490000005814536212178795172_);}
	.st21{fill:url(#SVGID_00000141458024591613777510000012044753547630492823_);}
	.st22{fill:url(#SVGID_00000099654199947170179470000018047998217217130395_);}
	.st23{fill:url(#SVGID_00000124162889472295407030000005439497399749786772_);}
	.st24{fill:url(#SVGID_00000144323045750588023310000011491653814566064564_);}
	.st25{fill:#8E5FC1;}
	.st26{fill:#684381;}
	.st27{fill:url(#SVGID_00000025435161389457531280000015899759725807503784_);}
	.st28{fill:url(#SVGID_00000172405735093248785930000008866842891576183944_);}
	.st29{fill:url(#SVGID_00000000936327425500232740000010667028581022540727_);}
	.st30{fill:url(#SVGID_00000152227424764184071590000009494924971619843725_);}
	.st31{fill:url(#SVGID_00000182487198100268176980000005104803364867621255_);}
	.st32{fill:#5A3B72;}
	.st33{fill:#6B3737;}
	.st34{fill:#4C1D1D;}
	.st35{fill:url(#SVGID_00000031190853291903656380000011706613003462327221_);}
	.st36{fill:url(#SVGID_00000128444098960579785580000009549633818625853069_);}
	.st37{fill:url(#SVGID_00000104664069452576237030000006838382249524377503_);}
	.st38{fill:url(#SVGID_00000023996843039711273900000008430197840373352890_);}
	.st39{fill:url(#SVGID_00000006703055277578965980000013199674807029372567_);}
	.st40{fill:url(#SVGID_00000124119326795397256340000010772328070901049762_);}
	.st41{fill:#706964;}
	.st42{fill:url(#SVGID_00000152223830684562998580000010882570399283198336_);}
	.st43{fill:url(#SVGID_00000142890329055641255150000010516504026971804053_);}
	.st44{fill:#514740;}
	.st45{fill:url(#SVGID_00000047746297251087560040000006602944927297735061_);}
	.st46{fill:url(#SVGID_00000038397173707304805270000006498105985784425095_);}
	.st47{fill:url(#SVGID_00000088100246306220595930000014983011598515394495_);}
	.st48{fill:url(#SVGID_00000098192751419356636120000005886628777221212841_);}
	.st49{fill:url(#SVGID_00000182510939304531997630000014056771263304331439_);}
	.st50{fill:url(#SVGID_00000124135707813887201280000004648239057616411554_);}
	.st51{fill:url(#SVGID_00000142149882690110189520000009379186777460442526_);}
	.st52{fill:#7472DD;}
	.st53{fill:url(#SVGID_00000163046478409850131510000016935299416671165864_);}
	.st54{fill:#4F4CC2;}
	.st55{fill:url(#SVGID_00000047025747970867759650000003230262002309270439_);}
	.st56{fill:url(#SVGID_00000173876619129679752880000017233136446947943085_);}
	.st57{fill:url(#SVGID_00000015315686227660948690000017879547797165104291_);}
	.st58{fill:url(#SVGID_00000111878424993617800130000003837877743458518455_);}
	.st59{fill:url(#SVGID_00000137815770004429054610000014566000345645489799_);}
	.st60{fill:url(#SVGID_00000155837291376964423990000003595163378771703966_);}
	.st61{fill:#FED1BE;}
	.st62{fill:url(#SVGID_00000129181540210149077570000004461359482906172339_);}
	.st63{fill:#F7A98D;}
	.st64{fill:url(#SVGID_00000021096080872972547770000000999079403381720981_);}
	.st65{fill:url(#SVGID_00000054230007816101594040000007931487509581652109_);}
	.st66{fill:url(#SVGID_00000169551638203324320340000013777246868463488683_);}
	.st67{fill:url(#SVGID_00000036242085731649753340000005411066233255021714_);}
	.st68{fill:url(#SVGID_00000072249082413356275590000011638478790557830274_);}
	.st69{fill:url(#SVGID_00000173861448881272827540000012055370949528755883_);}
	.st70{fill:#FDCD08;}
	.st71{fill:#FC940B;}
	.st72{fill:#DB7107;}
	.st73{fill:url(#SVGID_00000176021323929385424780000007975852849292808580_);}
	.st74{fill:url(#SVGID_00000135656252131774052360000008177489207268643763_);}
	.st75{fill:url(#SVGID_00000060734163932488719210000001763859889100762034_);}
	.st76{fill:url(#SVGID_00000008849808470450123340000006712482325770568869_);}
	.st77{fill:url(#SVGID_00000114786277254308958490000012905969591430424218_);}
	.st78{fill:url(#SVGID_00000059306294677096520010000015879862721526040729_);}
	.st79{fill:url(#SVGID_00000026157710662495732710000012902138439204015267_);}
	.st80{fill:#36C0E0;}
	.st81{fill:#2880BC;}
	.st82{fill:url(#SVGID_00000179635064943804733020000006807487846884694179_);}
	.st83{fill:url(#SVGID_00000021807148665022181620000002822082899780884354_);}
	.st84{fill:url(#SVGID_00000101819968431665664790000018044661127624064167_);}
	.st85{fill:url(#SVGID_00000042729739717162779060000001945090438156348091_);}
	.st86{fill:url(#SVGID_00000165916081414465118920000002802288321118312625_);}
	.st87{fill:url(#SVGID_00000008842792411258599650000003662381035502352531_);}
	.st88{fill:url(#SVGID_00000074399810662007634610000015758615934251908495_);}
	.st89{fill:url(#SVGID_00000155108084828720798570000003446556868868767153_);}
	.st90{fill:#205EA8;}
	.st91{fill:#A4DF9F;}
	.st92{fill:#6EA369;}
	.st93{fill:url(#SVGID_00000102533895290561849030000001947772421988993920_);}
	.st94{fill:url(#SVGID_00000128483525793824125060000002482298339851179661_);}
	.st95{fill:url(#SVGID_00000121960468595684424570000001222892775141829311_);}
	.st96{fill:url(#SVGID_00000101824989897434642420000014436833003942975167_);}
	.st97{fill:url(#SVGID_00000079480858871594563300000012992184688250587030_);}
	.st98{fill:url(#SVGID_00000056428737478339948090000004137659223721746870_);}
	.st99{fill:#E23466;}
	.st100{fill:#A80759;}
	.st101{fill:url(#SVGID_00000109730132022198153800000007971394445323545011_);}
	.st102{fill:url(#SVGID_00000120538757901489192100000014305660573285348028_);}
	.st103{fill:url(#SVGID_00000152971890974920095170000016258690751979337144_);}
	.st104{fill:url(#SVGID_00000120541104347536026160000008796065171601230746_);}
	.st105{fill:url(#SVGID_00000080180564694453555690000005783779223557371574_);}
	.st106{fill:#7C1352;}
	.st107{fill:#840D54;}
	.st108{fill:#FFD8E3;}
	.st109{fill:#EFA3BB;}
	.st110{fill:url(#SVGID_00000098940286985798310160000016598892550948115344_);}
	.st111{fill:url(#SVGID_00000155843164423322673230000014778393882449190070_);}
	.st112{fill:url(#SVGID_00000021818739412393382920000015665451622248261273_);}
	.st113{fill:url(#SVGID_00000151533940578844570090000005290006018033062281_);}
	.st114{fill:url(#SVGID_00000145047061129726627190000002529737422782494083_);}
	.st115{fill:url(#SVGID_00000183966984789316536140000011997302040071833728_);}
	.st116{fill:url(#SVGID_00000075867533062353766700000003048530390316781729_);}
	.st117{fill:#F4AD6E;}
	.st118{fill:#784726;}
	.st119{fill:#AB6A3C;}
	.st120{fill:url(#SVGID_00000005229804526476632160000014395306749156942511_);}
	.st121{fill:url(#SVGID_00000141414100284487049210000017573874970719235774_);}
	.st122{fill:url(#SVGID_00000167361155173733800540000007153172992392229275_);}
	.st123{fill:url(#SVGID_00000115477186034832677890000013001080750633029290_);}
	.st124{fill:url(#SVGID_00000114790165983088343620000001105455049475518381_);}
	.st125{fill:#E9E9E9;}
	.st126{fill:#A7A9AB;}
	.st127{fill:url(#SVGID_00000051352907633249362100000009384064701172741012_);}
	.st128{fill:url(#SVGID_00000036965144288983105430000008419258998465061265_);}
	.st129{fill:url(#SVGID_00000083806939577484455840000001082972458725273524_);}
	.st130{fill:url(#SVGID_00000070821232899205535690000017431204095505959860_);}
	.st131{fill:url(#SVGID_00000020368556444120471460000001854700611981663414_);}
	.st132{fill:url(#SVGID_00000029022645948400689630000005667136483596500632_);}
	.st133{fill:url(#SVGID_00000002354340848349808430000003136639920899122058_);}
	.st134{fill:#70767A;}
</style>
<g>
	<rect y="0" class="st99" width="500" height="500"/>
	<g>
		<g>
			<path class="st100" d="M155.1,258.5c26.6,38.3,93.6,40.4,138.5,23s50.7-48.5,47.4-78.7s-30.8-92.2-95-100
				C153.1,91.5,127.1,218.3,155.1,258.5z"/>
			<path class="st100" d="M448,500H52v-6.1c0-101.4,82.2-183.6,183.6-183.6h28.8c101.4,0,183.6,82.2,183.6,183.6V500z"/>
			<linearGradient id="SVGID_1_" gradientUnits="userSpaceOnUse" x1="410.4196" y1="508.595" x2="410.4196" y2="367.2351">
				<stop  offset="0" style="stop-color:#8C0B51"/>
				<stop  offset="1" style="stop-color:#A80759"/>
			</linearGradient>
			<path class="st2" d="M372.9,345.8c45.5,33.4,75.1,87.3,75.1,148.1v6.1h-75.1V345.8z"/>
			
				<linearGradient id="SVGID_00000039095977188658289670000001474473878309747358_" gradientUnits="userSpaceOnUse" x1="250.2822" y1="349.4283" x2="250.2822" y2="305.4264">
				<stop  offset="0" style="stop-color:#8C0B51"/>
				<stop  offset="1" style="stop-color:#A80759"/>
			</linearGradient>
			<path style="fill:url(#SVGID_00000039095977188658289670000001474473878309747358_);" d="M250,370.4c49.4,0,81.8-27.3,95.2-41.4
				c-24.4-12-51.8-18.7-80.8-18.7h-28.8c-28.8,0-56,6.6-80.2,18.4l0,0C155.4,328.7,183.6,370.4,250,370.4z"/>
			
				<linearGradient id="SVGID_00000021804216532048375320000012859308217807061157_" gradientUnits="userSpaceOnUse" x1="89.5804" y1="508.595" x2="89.5804" y2="367.2351">
				<stop  offset="0" style="stop-color:#8C0B51"/>
				<stop  offset="1" style="stop-color:#A80759"/>
			</linearGradient>
			<path style="fill:url(#SVGID_00000021804216532048375320000012859308217807061157_);" d="M127.1,345.8
				C81.6,379.2,52,433.1,52,493.9v6.1h75.1V345.8z"/>
			
				<linearGradient id="SVGID_00000168811552411948867640000000456886409423277475_" gradientUnits="userSpaceOnUse" x1="199.82" y1="224.3111" x2="150.7869" y2="273.3443">
				<stop  offset="0" style="stop-color:#8C0B51"/>
				<stop  offset="1" style="stop-color:#A80759"/>
			</linearGradient>
			<path style="fill:url(#SVGID_00000168811552411948867640000000456886409423277475_);" d="M145,227.5c1.3,12.5,4.7,23.4,10,31.1
				c8.5,12.3,21.2,20.8,36,26.2C191.6,243.3,164.2,231,145,227.5z"/>
			
				<linearGradient id="SVGID_00000036238179209434675900000017233119249293063087_" gradientUnits="userSpaceOnUse" x1="301.7885" y1="234.7778" x2="337.5323" y2="260.8983">
				<stop  offset="0" style="stop-color:#8C0B51"/>
				<stop  offset="1" style="stop-color:#A80759"/>
			</linearGradient>
			<path style="fill:url(#SVGID_00000036238179209434675900000017233119249293063087_);" d="M341.7,220.3
				c-15.3,3.6-45.4,16.2-40.2,57.9C331.5,264,340.7,242.7,341.7,220.3z"/>
		</g>
		<path class="st106" d="M342.7,210.2c-0.1-1.6-0.4-2.9-1-2.7c-0.8,0.3-20.9,15.9-20.9,15.9c-45.2-12.7-49.4-23.4-77.7-23.1
			c-28.3-0.2-32.5,10.4-77.7,23.1c0,0-20.1-15.5-20.9-15.9c-0.5-0.2-0.9,1-1,2.7c0,0-1.3,18.3,2.5,30.8
			c3.9,12.8,12.2,22.4,15.9,25.8c37.3,36.7,124.3,37,163.7-1.2c3.7-3.4,10.8-11.8,14.7-24.6C344,228.5,342.7,210.2,342.7,210.2z
			 M151.3,244.7c-3.3-7.2-4.3-19.8-4.4-26.8c0-1.3,1.5-2,2.5-1.2c5.5,4.7,12.9,11.2,15.3,13.2l-3.4,30.6
			C159.3,258.6,155.6,254,151.3,244.7z M334.9,244.7c-4.3,9.3-8,13.9-9.9,15.8l-3.4-30.6c2.3-2,9.8-8.5,15.3-13.2
			c1-0.8,2.5-0.1,2.5,1.2C339.2,224.9,338.2,237.6,334.9,244.7z"/>
		<path class="st107" d="M199.1,138.1c0,0,72.8,55.8,133.3,39.3c0,0,2.9,39.6,9.2,36.3c22.5-11.9,16.4-102.8-12.5-130
			c-50.7-47.7-129-37.6-153.8-3.7c0,0-21,14.2-30.2,28.4c-17.9,27.6-12.4,99.4-0.6,102.3c11,2.7,11.9-35.4,11.9-35.4
			S181.4,168,199.1,138.1z"/>
	</g>
</g>
</svg>
