<?xml version="1.0" encoding="utf-8"?>
<!-- Generator: Adobe Illustrator 27.6.1, SVG Export Plug-In . SVG Version: 6.00 Build 0)  -->
<svg version="1.1" id="Layer_1" xmlns="http://www.w3.org/2000/svg" xmlns:xlink="http://www.w3.org/1999/xlink" x="0px" y="0px"
	 viewBox="0 0 500 500" style="enable-background:new 0 0 500 500;" xml:space="preserve">
<style type="text/css">
	.st0{fill:#FE85B5;}
	.st1{fill:#D35789;}
	.st2{fill:url(#SVGID_1_);}
	.st3{fill:url(#SVGID_00000060710499350680979870000014880748926092087707_);}
	.st4{fill:url(#SVGID_00000065062794526444881830000012589637404828537217_);}
	.st5{fill:url(#SVGID_00000150793962173110568880000013337008749573574832_);}
	.st6{fill:url(#SVGID_00000178189567605899919120000008630457442039784110_);}
	.st7{fill:#51BE9F;}
	.st8{fill:#167251;}
	.st9{fill:#158962;}
	.st10{fill:url(#SVGID_00000089567147993065308180000005556739177317387144_);}
	.st11{fill:url(#SVGID_00000020389891086446502320000017642978068817994404_);}
	.st12{fill:url(#SVGID_00000062894065794999339860000012804820366073591200_);}
	.st13{fill:url(#SVGID_00000051382954153624605930000008925514903398284682_);}
	.st14{fill:url(#SVGID_00000075875974038762874610000006024210792486810777_);}
	.st15{fill:#137F58;}
	.st16{fill:#80BEF0;}
	.st17{fill:#4393C9;}
	.st18{fill:#387EB2;}
	.st19{fill:#2B6BA0;}
	.st20{fill:url(#SVGID_00000080165589973301922020000014014187622967127722_);}
	.st21{fill:url(#SVGID_00000062871800591187959100000003233249811186964619_);}
	.st22{fill:url(#SVGID_00000113316705236618060580000015188863578601020093_);}
	.st23{fill:url(#SVGID_00000090975307476747444760000010041348257362971067_);}
	.st24{fill:url(#SVGID_00000013884131964838225440000005823499695565305277_);}
	.st25{fill:#8E5FC1;}
	.st26{fill:#684381;}
	.st27{fill:url(#SVGID_00000054244804695343570530000012404962886325077161_);}
	.st28{fill:url(#SVGID_00000036253511127800509130000011345442012085072560_);}
	.st29{fill:url(#SVGID_00000008139811336151507870000005881236515742188703_);}
	.st30{fill:url(#SVGID_00000067951717355021859830000008908972285124725145_);}
	.st31{fill:url(#SVGID_00000016057604930466358280000008983438105677024430_);}
	.st32{fill:#5A3B72;}
	.st33{fill:#6B3737;}
	.st34{fill:#4C1D1D;}
	.st35{fill:url(#SVGID_00000129193176692710548120000015647437888983876998_);}
	.st36{fill:url(#SVGID_00000017504295265941117490000000806226273069728672_);}
	.st37{fill:url(#SVGID_00000182524155063286196980000004918259062366080156_);}
	.st38{fill:url(#SVGID_00000098208285902540894400000013232107202493044627_);}
	.st39{fill:url(#SVGID_00000067214633745553222090000009165250653895874200_);}
	.st40{fill:url(#SVGID_00000104700532581025049330000012616516366612325823_);}
	.st41{fill:#706964;}
	.st42{fill:url(#SVGID_00000178902819750889193610000013628041317948821438_);}
	.st43{fill:url(#SVGID_00000080203884700171860900000012544095783798884257_);}
	.st44{fill:#514740;}
	.st45{fill:url(#SVGID_00000169553675106242363610000003645155161950672776_);}
	.st46{fill:url(#SVGID_00000168099067264945131590000015403872278424266138_);}
	.st47{fill:url(#SVGID_00000054254406863964531780000016402496267694674837_);}
	.st48{fill:url(#SVGID_00000081640767163602715600000018254111670867163790_);}
	.st49{fill:url(#SVGID_00000174577508308298927660000018246371043540558998_);}
	.st50{fill:url(#SVGID_00000045591577644028307930000007717691682536111745_);}
	.st51{fill:url(#SVGID_00000057137208495821936870000001475383488132800155_);}
	.st52{fill:#7472DD;}
	.st53{fill:url(#SVGID_00000097476859164629441170000007406372317198797952_);}
	.st54{fill:#4F4CC2;}
	.st55{fill:url(#SVGID_00000067232080352763892480000011096152929710379454_);}
	.st56{fill:url(#SVGID_00000114066805716114838780000006311447231700955059_);}
	.st57{fill:url(#SVGID_00000124161366389404802120000006061551934765896075_);}
	.st58{fill:url(#SVGID_00000088839962407309484790000017405739985304588449_);}
	.st59{fill:url(#SVGID_00000091720919792436307370000009891706028415797136_);}
	.st60{fill:url(#SVGID_00000136383972027045790330000006651258518103048333_);}
	.st61{fill:#FED1BE;}
	.st62{fill:url(#SVGID_00000014620269740812689730000008463256756785971619_);}
	.st63{fill:#F7A98D;}
	.st64{fill:url(#SVGID_00000087388388476915897040000008839361519272059553_);}
	.st65{fill:url(#SVGID_00000051367594142788840290000001470870751562026169_);}
	.st66{fill:url(#SVGID_00000093154755629426453480000008905111400827704734_);}
	.st67{fill:url(#SVGID_00000042722860812314603200000013085462938092781741_);}
	.st68{fill:url(#SVGID_00000084514783297805193440000018067630127727530140_);}
	.st69{fill:url(#SVGID_00000146472173463056003390000016862626645749971857_);}
	.st70{fill:#FDCD08;}
	.st71{fill:#FC940B;}
	.st72{fill:#DB7107;}
	.st73{fill:url(#SVGID_00000005256784736963140520000012878897959364212111_);}
	.st74{fill:url(#SVGID_00000148636452854093148450000004825460933129763732_);}
	.st75{fill:url(#SVGID_00000108295777989840601710000014569071381683176352_);}
	.st76{fill:url(#SVGID_00000095336389265757974000000014561897737966238123_);}
	.st77{fill:url(#SVGID_00000033364012429020214560000008982734390648627334_);}
	.st78{fill:url(#SVGID_00000018227119342811143970000007675872226855803537_);}
	.st79{fill:url(#SVGID_00000065034695310181653600000007632090021242121604_);}
	.st80{fill:#36C0E0;}
	.st81{fill:#2880BC;}
	.st82{fill:url(#SVGID_00000058583135480378778120000009340236683940503978_);}
	.st83{fill:url(#SVGID_00000044166596468068695020000001800091397877691034_);}
	.st84{fill:url(#SVGID_00000080894494844199367130000004460707555322006927_);}
	.st85{fill:url(#SVGID_00000070098515703840832500000014109330449179906213_);}
	.st86{fill:url(#SVGID_00000135673836691119707820000009375848533347543203_);}
	.st87{fill:url(#SVGID_00000070111783407818693600000008849232181327018377_);}
	.st88{fill:url(#SVGID_00000080917187392162841530000017140616237287273894_);}
	.st89{fill:url(#SVGID_00000090260968284652321940000006782032954660875949_);}
	.st90{fill:#205EA8;}
	.st91{fill:#A4DF9F;}
	.st92{fill:#6EA369;}
	.st93{fill:url(#SVGID_00000135665146968519809230000006080793850243127714_);}
	.st94{fill:url(#SVGID_00000080890206257570806010000016009592319316592519_);}
	.st95{fill:url(#SVGID_00000041263905955795414950000015310771636898791346_);}
	.st96{fill:url(#SVGID_00000019661431741231854640000007080923487709189284_);}
	.st97{fill:url(#SVGID_00000069393686946410720580000002401915573871701683_);}
	.st98{fill:url(#SVGID_00000129203847885852989370000015401452496367616922_);}
	.st99{fill:#E23466;}
	.st100{fill:#A80759;}
	.st101{fill:url(#SVGID_00000095305872586518298890000008847574023833510790_);}
	.st102{fill:url(#SVGID_00000083780265939100180710000009095074114575206020_);}
	.st103{fill:url(#SVGID_00000088090959815875220610000000920626751835818423_);}
	.st104{fill:url(#SVGID_00000091728351295963228760000004128314237191816370_);}
	.st105{fill:url(#SVGID_00000080204356782789063210000008855236447834094247_);}
	.st106{fill:#7C1352;}
	.st107{fill:#840D54;}
	.st108{fill:#FFD8E3;}
	.st109{fill:#EFA3BB;}
	.st110{fill:url(#SVGID_00000124864429608817297890000014991365002707439757_);}
	.st111{fill:url(#SVGID_00000034808558244636627680000010565769964962740395_);}
	.st112{fill:url(#SVGID_00000008840316274803989510000004916866312629504953_);}
	.st113{fill:url(#SVGID_00000121249708861425393340000001451152746197377981_);}
	.st114{fill:url(#SVGID_00000080191471480519958080000015547963716271059633_);}
	.st115{fill:url(#SVGID_00000018935506625192139210000012731835941010681990_);}
	.st116{fill:url(#SVGID_00000058591761237044100960000008701089956258240957_);}
	.st117{fill:#F4AD6E;}
	.st118{fill:#784726;}
	.st119{fill:#AB6A3C;}
	.st120{fill:url(#SVGID_00000015331502370071656550000007786334502168077187_);}
	.st121{fill:url(#SVGID_00000111872639030976921140000004601724353760559235_);}
	.st122{fill:url(#SVGID_00000127757267883784750530000010317416642754268807_);}
	.st123{fill:url(#SVGID_00000101824399370537087600000013083658074874615946_);}
	.st124{fill:url(#SVGID_00000021119116284024367440000003913234944463754655_);}
	.st125{fill:#E9E9E9;}
	.st126{fill:#A7A9AB;}
	.st127{fill:url(#SVGID_00000065033062790883348440000002627402394670105256_);}
	.st128{fill:url(#SVGID_00000109745010106313955470000010579531121105176749_);}
	.st129{fill:url(#SVGID_00000130621127448400268090000009395273986748337049_);}
	.st130{fill:url(#SVGID_00000096043868548176367420000017334256914332627115_);}
	.st131{fill:url(#SVGID_00000039110661903492931470000006457648165566067604_);}
	.st132{fill:url(#SVGID_00000026874929215954326520000005581421804120446653_);}
	.st133{fill:url(#SVGID_00000130612856854286975200000009186105090024603583_);}
	.st134{fill:#70767A;}
</style>
<g>
	<rect y="0" class="st117" width="500" height="500"/>
	<g>
		<path class="st118" d="M202.7,55.1c7.1-14.5,24.6-24,41.8-22.8c17.2,1.2,32.9,13.2,37.4,28.5c3.2-6.1,10.9-10.5,18.1-9.1
			c18.3,3.5,18.6,21.2,18.6,21.2s18.9-7.8,28.6,1.1c10.5,9.6,6.5,24.9,6.5,24.9c7.6,0.4,14.9,4.7,18.5,10.9
			c3.6,6.2,3.5,14.1-0.3,20.2c7.7,3.9,15.6,8.5,19.7,15.7c4.1,7.2,2.9,17.5-4.8,21.5c7.6,3.2,13.2,10.1,14.5,17.7
			c1.3,7.6-1.8,15.7-8,20.9c6.2,3.2,10.4,9.7,10.4,16.3c0,6.6-4.1,13.1-10.3,16.3c9.8,5.4,16.4,18.6,10.4,27.3
			c-7.8,11.6-24.9,14.7-39.2,15c11.4,5.8,20.2,17.6,19.6,25.8c9.4-1.4,19.6-0.9,27.5,4c7.9,4.9,12.2,15.2,7.5,22.8
			c10.5,1.4,19.2,9.8,21.3,19.4c2.1,9.6-1.8,19.9-9,27c0,0,6.5,28.1-11.8,34.1c-18.3,6-301.1-15.1-301.1-15.1s-27.6,16.4-46.7,11.9
			C47.5,405.1,57.1,378,57.1,378c-7.3-7.1-11.2-17.4-9-27c2.1-9.6,10.8-18,21.3-19.4c-4.7-7.6-0.3-17.9,7.5-22.8
			c7.9-4.9,18.1-5.3,27.5-4c-3.3-5.2,5.4-17.8,16.3-24.3c-12.8-2.1-26.2-5.5-32.9-19.6c-4.5-9.6-2.3-18.8,7.5-24.2
			c-6.2-3.2-10.4-9.7-10.3-16.3c0-6.6,4.1-13,10.4-16.3c-6.2-5.2-9.3-13.3-8-20.9c1.3-7.6,6.9-14.5,14.5-17.7
			c-7.7-4-8.9-14.3-4.8-21.5c4.1-7.2,12-11.8,19.7-15.7c0,0-5.5-16.1,6-26.1s25.2-5.7,25.2-5.7S147,47.3,202.7,55.1z"/>
	</g>
	<g>
		<path class="st119" d="M155.1,258.5c26.6,38.3,93.6,40.4,138.5,23s50.7-48.5,47.4-78.7s-30.8-92.2-95-100
			C153.1,91.5,127.1,218.3,155.1,258.5z"/>
		<linearGradient id="SVGID_1_" gradientUnits="userSpaceOnUse" x1="192.51" y1="228.1255" x2="158.2937" y2="267.2297">
			<stop  offset="0" style="stop-color:#844E2A"/>
			<stop  offset="1" style="stop-color:#AB6A3C"/>
		</linearGradient>
		<path class="st2" d="M145,227.5c1.3,12.5,4.7,23.4,10,31.1c8.5,12.3,21.2,20.8,36,26.2C191.6,243.3,164.2,231,145,227.5z"/>
		
			<linearGradient id="SVGID_00000131336953781957370910000007669795070133395381_" gradientUnits="userSpaceOnUse" x1="292.8719" y1="224.5115" x2="332.5872" y2="258.7278">
			<stop  offset="0" style="stop-color:#844E2A"/>
			<stop  offset="1" style="stop-color:#AB6A3C"/>
		</linearGradient>
		<path style="fill:url(#SVGID_00000131336953781957370910000007669795070133395381_);" d="M341.7,220.3
			c-15.3,3.6-45.4,16.2-40.2,57.9C331.5,264,340.7,242.7,341.7,220.3z"/>
		<path class="st119" d="M448,500H52v-6.1c0-101.4,82.2-183.6,183.6-183.6h28.8c101.4,0,183.6,82.2,183.6,183.6V500z"/>
		
			<linearGradient id="SVGID_00000020400730427624654990000011524539555127034256_" gradientUnits="userSpaceOnUse" x1="250.2822" y1="403.8586" x2="250.2822" y2="305.7538">
			<stop  offset="0" style="stop-color:#844E2A"/>
			<stop  offset="1" style="stop-color:#AB6A3C"/>
		</linearGradient>
		<path style="fill:url(#SVGID_00000020400730427624654990000011524539555127034256_);" d="M250,370.4c49.4,0,81.8-27.3,95.2-41.4
			c-24.4-12-51.8-18.7-80.8-18.7h-28.8c-28.8,0-56,6.6-80.2,18.4l0,0C155.4,328.7,183.6,370.4,250,370.4z"/>
		
			<linearGradient id="SVGID_00000111177178715127856180000011924855409331462062_" gradientUnits="userSpaceOnUse" x1="89.5804" y1="519.3384" x2="89.5804" y2="377.206">
			<stop  offset="0" style="stop-color:#844E2A"/>
			<stop  offset="1" style="stop-color:#AB6A3C"/>
		</linearGradient>
		<path style="fill:url(#SVGID_00000111177178715127856180000011924855409331462062_);" d="M127.1,345.8
			C81.6,379.2,52,433.1,52,493.9v6.1h75.1V345.8z"/>
		
			<linearGradient id="SVGID_00000104693055601807781370000008772099961713436329_" gradientUnits="userSpaceOnUse" x1="410.4196" y1="519.3384" x2="410.4196" y2="377.206">
			<stop  offset="0" style="stop-color:#844E2A"/>
			<stop  offset="1" style="stop-color:#AB6A3C"/>
		</linearGradient>
		<path style="fill:url(#SVGID_00000104693055601807781370000008772099961713436329_);" d="M372.9,345.8
			c45.5,33.4,75.1,87.3,75.1,148.1v6.1h-75.1V345.8z"/>
	</g>
	<g>
		<path class="st118" d="M210.9,131.6c-0.8,10.6,6,21.4,15.9,25.2c9.9,3.8,22.2,0.4,28.8-8c0.2,7.5,5.6,14.6,12.7,16.9
			c7.2,2.3,15.6-0.4,20.2-6.4c0.5,7.3,5.9,14,13,15.9c7,1.9,15.1-1.1,19.2-7.1c0.1,5.5,1.9,11.2,5.6,15.2c3.8,4.1,9.7,6.3,15,4.9
			c6.8-1.7,11.4-8.7,12.1-15.8c0.7-7-1.7-14-4.6-20.4c-14.1-31.2-42.2-55.7-75-65.6s-69.7-4.8-98.7,13.4s-49.4,49.4-54.7,83.2
			c8.2,5.9,19.7,6.8,28.9,2.4s15.4-14.1,15.9-24.2c6.7,5.1,16.6,5.5,23.7,0.9c4.3-2.7,7.3-6.9,10.3-11
			C204.1,144.8,206,138.3,210.9,131.6"/>
	</g>
</g>
</svg>
