<?xml version="1.0" encoding="utf-8"?>
<!-- Generator: Adobe Illustrator 27.6.1, SVG Export Plug-In . SVG Version: 6.00 Build 0)  -->
<svg version="1.1" id="Layer_1" xmlns="http://www.w3.org/2000/svg" xmlns:xlink="http://www.w3.org/1999/xlink" x="0px" y="0px"
	 viewBox="0 0 500 500" style="enable-background:new 0 0 500 500;" xml:space="preserve">
<style type="text/css">
	.st0{fill:#FE85B5;}
	.st1{fill:#D35789;}
	.st2{fill:url(#SVGID_1_);}
	.st3{fill:url(#SVGID_00000165209820955850491190000002531041204507650238_);}
	.st4{fill:url(#SVGID_00000065757051078893155680000006881777502573437606_);}
	.st5{fill:url(#SVGID_00000178167346297965371560000009659349168937400997_);}
	.st6{fill:url(#SVGID_00000156564363069076480990000007144141705252195215_);}
	.st7{fill:#51BE9F;}
	.st8{fill:#167251;}
	.st9{fill:#158962;}
	.st10{fill:url(#SVGID_00000059277761254051306220000014592447791648934785_);}
	.st11{fill:url(#SVGID_00000016790893925418268290000005896121952409925805_);}
	.st12{fill:url(#SVGID_00000075145465213379237810000004124665166478962859_);}
	.st13{fill:url(#SVGID_00000036253941879934868960000010875375812452855214_);}
	.st14{fill:url(#SVGID_00000112601829617482717510000000361525973364816523_);}
	.st15{fill:#137F58;}
	.st16{fill:#80BEF0;}
	.st17{fill:#4393C9;}
	.st18{fill:#387EB2;}
	.st19{fill:#2B6BA0;}
	.st20{fill:url(#SVGID_00000103255004734535178010000007179535234092183197_);}
	.st21{fill:url(#SVGID_00000121255633315686964800000011987994941401492126_);}
	.st22{fill:url(#SVGID_00000010285827667131648740000008689396965134046906_);}
	.st23{fill:url(#SVGID_00000106137797213739504110000010307295679923117459_);}
	.st24{fill:url(#SVGID_00000014624824767373627780000004510942001222646712_);}
	.st25{fill:#8E5FC1;}
	.st26{fill:#684381;}
	.st27{fill:url(#SVGID_00000108286666750840168850000017835513774127901081_);}
	.st28{fill:url(#SVGID_00000177469929788894123030000002755829130293643146_);}
	.st29{fill:url(#SVGID_00000004545547473556992180000014790666179208687032_);}
	.st30{fill:url(#SVGID_00000182518825827499596130000016626934805102502276_);}
	.st31{fill:url(#SVGID_00000013890379046513329090000012749821041101621425_);}
	.st32{fill:#5A3B72;}
	.st33{fill:#6B3737;}
	.st34{fill:#4C1D1D;}
	.st35{fill:url(#SVGID_00000178886116212838896140000003334903191926334632_);}
	.st36{fill:url(#SVGID_00000124882763932349577140000001776704213620491428_);}
	.st37{fill:url(#SVGID_00000123440430983087534920000005195830709958227334_);}
	.st38{fill:url(#SVGID_00000079453905550019239680000011164121470663017119_);}
	.st39{fill:url(#SVGID_00000011028075067819586060000015324953857739835780_);}
	.st40{fill:url(#SVGID_00000021801652399964685360000016393059089756830097_);}
	.st41{fill:#706964;}
	.st42{fill:url(#SVGID_00000148656071234498252790000015740619183965013155_);}
	.st43{fill:url(#SVGID_00000109716490105007132840000012365129499882409903_);}
	.st44{fill:#514740;}
	.st45{fill:url(#SVGID_00000036227747992567634980000009263635247016174995_);}
	.st46{fill:url(#SVGID_00000049908836373826618350000008214946393299755918_);}
	.st47{fill:url(#SVGID_00000182513126503240149720000000065744302913842603_);}
	.st48{fill:url(#SVGID_00000179640774342610281150000007807984932487860923_);}
	.st49{fill:url(#SVGID_00000140708130023436122380000012107723873226487968_);}
	.st50{fill:url(#SVGID_00000139291826577842151810000002154272637930184064_);}
	.st51{fill:url(#SVGID_00000158749025097622239890000006121957748329608596_);}
	.st52{fill:#7472DD;}
	.st53{fill:url(#SVGID_00000118370007366496121100000013575778870924812716_);}
	.st54{fill:#4F4CC2;}
	.st55{fill:url(#SVGID_00000002375574844268238450000007520433284068190906_);}
	.st56{fill:url(#SVGID_00000023978845825180556870000012700524926094838671_);}
	.st57{fill:url(#SVGID_00000075849593955526322030000000774441245771196590_);}
	.st58{fill:url(#SVGID_00000155845314917899632560000014254339260023239098_);}
	.st59{fill:url(#SVGID_00000037688930720048785370000003765380236215746182_);}
	.st60{fill:url(#SVGID_00000026131714996128137630000017503189890338210236_);}
	.st61{fill:#FED1BE;}
	.st62{fill:url(#SVGID_00000088816815184089472720000014831016824628378283_);}
	.st63{fill:#F7A98D;}
	.st64{fill:url(#SVGID_00000050627488320620030180000016206353990088393660_);}
	.st65{fill:url(#SVGID_00000136371707310069052910000003866924370843615934_);}
	.st66{fill:url(#SVGID_00000003075680411171878130000002177443381446748809_);}
	.st67{fill:url(#SVGID_00000144330800615551269800000011471474910388712852_);}
	.st68{fill:url(#SVGID_00000047780057373519634930000017310852946644997525_);}
	.st69{fill:url(#SVGID_00000085973556164760943530000015903807108932769427_);}
	.st70{fill:#FDCD08;}
	.st71{fill:#FC940B;}
	.st72{fill:#DB7107;}
	.st73{fill:url(#SVGID_00000016077404381246112120000012611186315763887259_);}
	.st74{fill:url(#SVGID_00000023262372413231597870000009705624391742783671_);}
	.st75{fill:url(#SVGID_00000098218683932021366140000014975861647083549576_);}
	.st76{fill:url(#SVGID_00000173847759881430268740000009356538513367197887_);}
	.st77{fill:url(#SVGID_00000049221580458134602270000005362486359155591326_);}
	.st78{fill:url(#SVGID_00000050651659294826917130000009804647868876072353_);}
	.st79{fill:url(#SVGID_00000081638681003538895930000004382558711368449949_);}
	.st80{fill:#36C0E0;}
	.st81{fill:#2880BC;}
	.st82{fill:url(#SVGID_00000166669296224122181970000001006862281351953287_);}
	.st83{fill:url(#SVGID_00000173858899226815270560000000162769133533809058_);}
	.st84{fill:url(#SVGID_00000104701227857312632100000004621595109836352149_);}
	.st85{fill:url(#SVGID_00000174589837942191480450000011872722268200234639_);}
	.st86{fill:url(#SVGID_00000104671257910649249150000000872344980949756088_);}
	.st87{fill:url(#SVGID_00000150789666793716727180000005031452631051529348_);}
	.st88{fill:url(#SVGID_00000175320282894344699270000002206694032268335288_);}
	.st89{fill:url(#SVGID_00000105418570680949071450000010986173273927386263_);}
	.st90{fill:#205EA8;}
	.st91{fill:#A4DF9F;}
	.st92{fill:#6EA369;}
	.st93{fill:url(#SVGID_00000021827170279289769450000005615534983612203672_);}
	.st94{fill:url(#SVGID_00000082362072381753223680000006198126180467248804_);}
	.st95{fill:url(#SVGID_00000044155889096542527340000005199209195879471243_);}
	.st96{fill:url(#SVGID_00000075877753327690901890000010190340026491242370_);}
	.st97{fill:url(#SVGID_00000139296160827564748040000005435964113326829978_);}
	.st98{fill:url(#SVGID_00000172433764087241285750000009794459789162102691_);}
	.st99{fill:#E23466;}
	.st100{fill:#A80759;}
	.st101{fill:url(#SVGID_00000099632007204175512100000008496203098082429320_);}
	.st102{fill:url(#SVGID_00000039816400362338470810000005958351740888846751_);}
	.st103{fill:url(#SVGID_00000051365091802998642130000016075503579017843117_);}
	.st104{fill:url(#SVGID_00000133517272956274625990000016921866849217917881_);}
	.st105{fill:url(#SVGID_00000130641821929440929540000002302314555587739549_);}
	.st106{fill:#7C1352;}
	.st107{fill:#840D54;}
	.st108{fill:#FFD8E3;}
	.st109{fill:#EFA3BB;}
	.st110{fill:url(#SVGID_00000152243352194083022160000007484418342784335769_);}
	.st111{fill:url(#SVGID_00000051346641114407673770000006480527893155555208_);}
	.st112{fill:url(#SVGID_00000163794777316968815550000011444776920457562775_);}
	.st113{fill:url(#SVGID_00000009549299363103269350000018110195251519753350_);}
	.st114{fill:url(#SVGID_00000035524580141378400610000015552004548192099751_);}
	.st115{fill:url(#SVGID_00000128462603674976415750000012193439403390809261_);}
	.st116{fill:url(#SVGID_00000065058882803846636810000000248846303949635243_);}
	.st117{fill:#F4AD6E;}
	.st118{fill:#784726;}
	.st119{fill:#AB6A3C;}
	.st120{fill:url(#SVGID_00000107576701908318861160000000586470162676697269_);}
	.st121{fill:url(#SVGID_00000054950924511649117970000001057161321007389886_);}
	.st122{fill:url(#SVGID_00000005953950192534810300000002484990080690886076_);}
	.st123{fill:url(#SVGID_00000124119274801292849870000016134536046188183175_);}
	.st124{fill:url(#SVGID_00000086674736688326471490000010151421989897877683_);}
	.st125{fill:#E9E9E9;}
	.st126{fill:#A7A9AB;}
	.st127{fill:url(#SVGID_00000016781310999070189680000000531652369684782261_);}
	.st128{fill:url(#SVGID_00000039820890308841850150000003703615550513553561_);}
	.st129{fill:url(#SVGID_00000119098054171771138760000015650995351422854021_);}
	.st130{fill:url(#SVGID_00000023962627850349554880000017313080516712601492_);}
	.st131{fill:url(#SVGID_00000182495543795713609140000003616440724891963793_);}
	.st132{fill:url(#SVGID_00000176753344133360727330000003104775523841901716_);}
	.st133{fill:url(#SVGID_00000019664705057567358320000005809105100584279708_);}
	.st134{fill:#70767A;}
</style>
<g>
	<rect y="0" class="st80" width="500" height="500"/>
	<g>
		<path class="st81" d="M155.1,258.5c26.6,38.3,93.6,40.4,138.5,23s50.7-48.5,47.4-78.7s-30.8-92.2-95-100
			C153.1,91.5,127.1,218.3,155.1,258.5z"/>
		<linearGradient id="SVGID_1_" gradientUnits="userSpaceOnUse" x1="155.3371" y1="221.932" x2="155.3371" y2="159.8879">
			<stop  offset="0" style="stop-color:#2880BC"/>
			<stop  offset="1" style="stop-color:#205EA8"/>
		</linearGradient>
		<path class="st2" d="M159.2,194.1c7.3-8.2,7-22.9,7-22.9l-7.6-5.9c-2.4,1.1-4.5,2.4-6.3,3.8c-5.1,14.8-7.7,30.4-7.8,44.7
			C147.9,207.7,153.9,200.1,159.2,194.1z"/>
		
			<linearGradient id="SVGID_00000106836862939201200320000002279977288028824477_" gradientUnits="userSpaceOnUse" x1="329.7474" y1="221.932" x2="329.7474" y2="159.8879">
			<stop  offset="0" style="stop-color:#2880BC"/>
			<stop  offset="1" style="stop-color:#205EA8"/>
		</linearGradient>
		<path style="fill:url(#SVGID_00000106836862939201200320000002279977288028824477_);" d="M341,202.8c-1.1-10-4.9-23.6-11.8-37.5
			l-11.4,2.7c0,0-1.1,17.2,7.8,25.4c5.7,5.2,11.9,12.9,16.1,19.8C341.6,209.8,341.4,206.3,341,202.8z"/>
		<path class="st81" d="M448,500H52v-6.1c0-101.4,82.2-183.6,183.6-183.6h28.8c101.4,0,183.6,82.2,183.6,183.6V500z"/>
		
			<linearGradient id="SVGID_00000010274729095246942790000015302849828040353206_" gradientUnits="userSpaceOnUse" x1="250.2822" y1="287.004" x2="250.2822" y2="366.444">
			<stop  offset="0" style="stop-color:#2880BC"/>
			<stop  offset="1" style="stop-color:#205EA8"/>
		</linearGradient>
		<path style="fill:url(#SVGID_00000010274729095246942790000015302849828040353206_);" d="M250,370.4c49.4,0,81.8-27.3,95.2-41.4
			c-24.4-12-51.8-18.7-80.8-18.7h-28.8c-28.8,0-56,6.6-80.2,18.4l0,0C155.4,328.7,183.6,370.4,250,370.4z"/>
		
			<linearGradient id="SVGID_00000005250411282734846880000016511476261349434286_" gradientUnits="userSpaceOnUse" x1="89.5804" y1="318.1652" x2="89.5804" y2="478.9755">
			<stop  offset="0" style="stop-color:#2880BC"/>
			<stop  offset="1" style="stop-color:#205EA8"/>
		</linearGradient>
		<path style="fill:url(#SVGID_00000005250411282734846880000016511476261349434286_);" d="M127.1,345.8
			C81.6,379.2,52,433.1,52,493.9v6.1h75.1V345.8z"/>
		
			<linearGradient id="SVGID_00000085958735318662624710000014274028174533077161_" gradientUnits="userSpaceOnUse" x1="410.4196" y1="318.1652" x2="410.4196" y2="478.9755">
			<stop  offset="0" style="stop-color:#2880BC"/>
			<stop  offset="1" style="stop-color:#205EA8"/>
		</linearGradient>
		<path style="fill:url(#SVGID_00000085958735318662624710000014274028174533077161_);" d="M372.9,345.8
			c45.5,33.4,75.1,87.3,75.1,148.1v6.1h-75.1V345.8z"/>
		
			<linearGradient id="SVGID_00000042001162396890530550000003938228216993550750_" gradientUnits="userSpaceOnUse" x1="145.4572" y1="277.3957" x2="177.8405" y2="246.8455">
			<stop  offset="0" style="stop-color:#2880BC"/>
			<stop  offset="1" style="stop-color:#205EA8"/>
		</linearGradient>
		<path style="fill:url(#SVGID_00000042001162396890530550000003938228216993550750_);" d="M145,227.5c1.3,12.5,4.7,23.4,10,31.1
			c8.5,12.3,21.2,20.8,36,26.2C191.6,243.3,164.2,231,145,227.5z"/>
		
			<linearGradient id="SVGID_00000060012013272753352770000008255951938441074605_" gradientUnits="userSpaceOnUse" x1="338.1687" y1="266.5297" x2="308.8405" y2="235.9795">
			<stop  offset="0" style="stop-color:#2880BC"/>
			<stop  offset="1" style="stop-color:#205EA8"/>
		</linearGradient>
		<path style="fill:url(#SVGID_00000060012013272753352770000008255951938441074605_);" d="M341.7,220.3
			c-15.3,3.6-45.4,16.2-40.2,57.9C331.5,264,340.7,242.7,341.7,220.3z"/>
		
			<linearGradient id="SVGID_00000048501173335709133520000011725426936583863687_" gradientUnits="userSpaceOnUse" x1="244.4402" y1="200.0886" x2="244.4402" y2="278.0402">
			<stop  offset="0" style="stop-color:#2880BC"/>
			<stop  offset="1" style="stop-color:#205EA8"/>
		</linearGradient>
		<path style="fill:url(#SVGID_00000048501173335709133520000011725426936583863687_);" d="M277.4,235.8c-6.9-3.6-35.7,2-35.7,2
			s-24.7-4.6-32.1,0c-7.3,4.6-15,34.6-4.3,53.2c9.7,17,60.5,14.1,74.2,4.4C296.8,283.3,286.4,240.4,277.4,235.8z M266.1,277.1
			c-6.9,7.1-39.8,5.1-45.1,1.1c-7.9-5.8-1.2-27.4-1.2-27.4c3.9-5.5,23.4,2.7,23.4,2.7s20.3-7.8,23.3-4.3
			C270.5,254,272.9,270,266.1,277.1z"/>
		<g>
			<path class="st90" d="M342.7,128.1c5.3-2.4,8-9,6.6-14.6c-1.4-5.7-6.4-10.2-12-11.9c-5.6-1.7-11.8-0.9-17.3,1.2
				c3.6-10.1,0.4-22.4-7.8-29.3c-8.2-7-20.8-8.2-30.2-3c-3.2,1.8-6.7,4.3-10.2,3.2c-2.2-0.8-3.7-2.8-5.1-4.7
				c-7.8-9.7-21.1-14.8-33.4-12.8c-12.3,2-23.3,11-27.6,22.8c-5-5.2-11.4-9.3-18.6-10.7c-7.1-1.4-15,0.2-20.4,5
				c-6.5,5.6-8.9,14.5-10.1,23c-1.2,8.5-1.7,17.3-5.5,24.9c-4.6-4.3-13.1-1.5-15.9,4.2s-1.4,12.7,1.4,18.3c2.9,5.7,7,10.6,10,16.3
				s2.8,19.1,2.8,19.1s34.2-21.8,95.2-20.9c55.1,0.8,86.1,20,91.1,22.3c3.9-18,14.4-25.4,17-40C354.5,129.6,345.2,127.6,342.7,128.1
				z"/>
		</g>
	</g>
</g>
</svg>
