<?xml version="1.0" encoding="utf-8"?>
<!-- Generator: Adobe Illustrator 27.6.1, SVG Export Plug-In . SVG Version: 6.00 Build 0)  -->
<svg version="1.1" id="Layer_1" xmlns="http://www.w3.org/2000/svg" xmlns:xlink="http://www.w3.org/1999/xlink" x="0px" y="0px"
	 viewBox="0 0 500 500" style="enable-background:new 0 0 500 500;" xml:space="preserve">
<style type="text/css">
	.st0{fill:#FE85B5;}
	.st1{fill:#D35789;}
	.st2{fill:url(#SVGID_1_);}
	.st3{fill:url(#SVGID_00000126298427350956322490000009267753547483959996_);}
	.st4{fill:url(#SVGID_00000044140919236156006340000002740833199793447342_);}
	.st5{fill:url(#SVGID_00000164473905468777324180000014258693292091150508_);}
	.st6{fill:url(#SVGID_00000088842927984805270450000000048224900462425251_);}
	.st7{fill:#51BE9F;}
	.st8{fill:#167251;}
	.st9{fill:#158962;}
	.st10{fill:url(#SVGID_00000119821391045150509850000000385374250482471083_);}
	.st11{fill:url(#SVGID_00000084517113879541421760000011106342984939711655_);}
	.st12{fill:url(#SVGID_00000075876008950578212330000002069246077911594413_);}
	.st13{fill:url(#SVGID_00000093862435461381813770000004861735642741145480_);}
	.st14{fill:url(#SVGID_00000003075354582460695710000009253501733587280315_);}
	.st15{fill:#137F58;}
	.st16{fill:#80BEF0;}
	.st17{fill:#4393C9;}
	.st18{fill:#387EB2;}
	.st19{fill:#2B6BA0;}
	.st20{fill:url(#SVGID_00000132055152584178436420000009023763077492606137_);}
	.st21{fill:url(#SVGID_00000098942898383616882210000002973330080452299659_);}
	.st22{fill:url(#SVGID_00000142161344284771562260000000671854607340513679_);}
	.st23{fill:url(#SVGID_00000014596202255778982930000011913493851896386238_);}
	.st24{fill:url(#SVGID_00000100345723524382125250000012054164723923543700_);}
	.st25{fill:#8E5FC1;}
	.st26{fill:#684381;}
	.st27{fill:url(#SVGID_00000049209565407316802740000006932289145481097893_);}
	.st28{fill:url(#SVGID_00000071552024740530806840000013718601984763818888_);}
	.st29{fill:url(#SVGID_00000062886267342955159540000005596105451606815163_);}
	.st30{fill:url(#SVGID_00000155115408273587744000000002802626664658290871_);}
	.st31{fill:url(#SVGID_00000063609660034673063970000015253395673943478171_);}
	.st32{fill:#5A3B72;}
	.st33{fill:#6B3737;}
	.st34{fill:#4C1D1D;}
	.st35{fill:url(#SVGID_00000145739307925120297850000002199800420375061896_);}
	.st36{fill:url(#SVGID_00000134939530605732733000000015495805827489846919_);}
	.st37{fill:url(#SVGID_00000029035115527085929770000013181723796242924205_);}
	.st38{fill:url(#SVGID_00000121958483918580580860000007807296060514445745_);}
	.st39{fill:url(#SVGID_00000164501803203403335600000011322680801825488279_);}
	.st40{fill:url(#SVGID_00000106837687079854534160000005858888562095313047_);}
	.st41{fill:#706964;}
	.st42{fill:url(#SVGID_00000036228409567446456100000016361041862742266779_);}
	.st43{fill:url(#SVGID_00000148660680761829314020000010253622911171094192_);}
	.st44{fill:#514740;}
	.st45{fill:url(#SVGID_00000122684309119675894450000003004424794571976322_);}
	.st46{fill:url(#SVGID_00000047057585531528968670000013025353159009090227_);}
	.st47{fill:url(#SVGID_00000167372027165573272660000017087362065073407907_);}
	.st48{fill:url(#SVGID_00000069365105065669305980000011290572031733374873_);}
	.st49{fill:url(#SVGID_00000014592716801976770680000015612822193413211837_);}
	.st50{fill:url(#SVGID_00000085958975702123602480000002963179218229216655_);}
	.st51{fill:url(#SVGID_00000026123331059430416890000007960723813145725583_);}
	.st52{fill:#7472DD;}
	.st53{fill:url(#SVGID_00000175302711294577160770000002821137583547773109_);}
	.st54{fill:#4F4CC2;}
	.st55{fill:url(#SVGID_00000015352177148363343760000004034887424470316717_);}
	.st56{fill:url(#SVGID_00000098921565539156494390000001764817453214556071_);}
	.st57{fill:url(#SVGID_00000177486048374283701400000011753439580892121221_);}
	.st58{fill:url(#SVGID_00000031190685874344266450000014311272218417290655_);}
	.st59{fill:url(#SVGID_00000132066809277146837880000001376992748943806638_);}
	.st60{fill:url(#SVGID_00000173120718210994100420000015746017522878764191_);}
	.st61{fill:#FED1BE;}
	.st62{fill:url(#SVGID_00000103985194356520121650000008112023986642878391_);}
	.st63{fill:#F7A98D;}
	.st64{fill:url(#SVGID_00000011031426246965439670000000045873866261826181_);}
	.st65{fill:url(#SVGID_00000155107591580455560850000001198358932177111697_);}
	.st66{fill:url(#SVGID_00000091724122553734187080000003058834310268418965_);}
	.st67{fill:url(#SVGID_00000070100404355976789360000007468011648038727046_);}
	.st68{fill:url(#SVGID_00000121977750657107318510000013450771656135030186_);}
	.st69{fill:url(#SVGID_00000041999738687473474720000005636110689429426090_);}
	.st70{fill:#FDCD08;}
	.st71{fill:#FC940B;}
	.st72{fill:#DB7107;}
	.st73{fill:url(#SVGID_00000044162166769368435930000008801044514192922813_);}
	.st74{fill:url(#SVGID_00000021840477883570127700000010439288453916139703_);}
	.st75{fill:url(#SVGID_00000102539810950937737540000012165496494585725587_);}
	.st76{fill:url(#SVGID_00000022552687224079169720000007307563823275525268_);}
	.st77{fill:url(#SVGID_00000108301976957329383760000012639707083165088412_);}
	.st78{fill:url(#SVGID_00000163781026481861068130000016482442748963574660_);}
	.st79{fill:url(#SVGID_00000029040518893303522660000006291261825385885631_);}
	.st80{fill:#36C0E0;}
	.st81{fill:#2880BC;}
	.st82{fill:url(#SVGID_00000168823898171874843180000016813942902595457723_);}
	.st83{fill:url(#SVGID_00000142881477801888991030000013153147804417580186_);}
	.st84{fill:url(#SVGID_00000065034397847134665660000012865238868231003550_);}
	.st85{fill:url(#SVGID_00000108294478827963262750000008298844957410442169_);}
	.st86{fill:url(#SVGID_00000004520849526354491220000007673845969208121526_);}
	.st87{fill:url(#SVGID_00000026121194278358615700000017680831226588658334_);}
	.st88{fill:url(#SVGID_00000001662999601776507230000008517366141143819146_);}
	.st89{fill:url(#SVGID_00000109014128665199676270000013596149247744134328_);}
	.st90{fill:#205EA8;}
	.st91{fill:#A4DF9F;}
	.st92{fill:#6EA369;}
	.st93{fill:url(#SVGID_00000093895381195294338100000005066043818000822164_);}
	.st94{fill:url(#SVGID_00000177450114972664665690000012791209634871960976_);}
	.st95{fill:url(#SVGID_00000109748709811697999950000005113399508102899362_);}
	.st96{fill:url(#SVGID_00000160179561214209303890000015417799395143184259_);}
	.st97{fill:url(#SVGID_00000183250411488277329830000000155147232630172334_);}
	.st98{fill:url(#SVGID_00000134950850654939709290000003491373447056943018_);}
	.st99{fill:#E23466;}
	.st100{fill:#A80759;}
	.st101{fill:url(#SVGID_00000181771031766718935840000002282876384166456247_);}
	.st102{fill:url(#SVGID_00000156567018562693371890000008508167654604180366_);}
	.st103{fill:url(#SVGID_00000062193653908733320300000002028924039364481454_);}
	.st104{fill:url(#SVGID_00000150081710619434131900000001909937623693520290_);}
	.st105{fill:url(#SVGID_00000156582051648144008010000002961194045165948810_);}
	.st106{fill:#7C1352;}
	.st107{fill:#840D54;}
	.st108{fill:#FFD8E3;}
	.st109{fill:#EFA3BB;}
	.st110{fill:url(#SVGID_00000143578443732474341180000009230121611202847675_);}
	.st111{fill:url(#SVGID_00000171700468988043507340000008381628574027259069_);}
	.st112{fill:url(#SVGID_00000162322530033919811300000002294915064263239099_);}
	.st113{fill:url(#SVGID_00000145767868992711667570000010781476353922705053_);}
	.st114{fill:url(#SVGID_00000096032903873169510520000016019578589012362906_);}
	.st115{fill:url(#SVGID_00000111167776437778958050000006935535584551317138_);}
	.st116{fill:url(#SVGID_00000121975342192223432220000012533389675095226281_);}
	.st117{fill:#F4AD6E;}
	.st118{fill:#784726;}
	.st119{fill:#AB6A3C;}
	.st120{fill:url(#SVGID_00000127735445029695199330000011358923960679166642_);}
	.st121{fill:url(#SVGID_00000086679274399819715990000018212278335567200191_);}
	.st122{fill:url(#SVGID_00000135648521055894061570000014739190170790680489_);}
	.st123{fill:url(#SVGID_00000151539754723694801210000015010033797595756443_);}
	.st124{fill:url(#SVGID_00000170968737059949122580000000464580303076068488_);}
	.st125{fill:#E9E9E9;}
	.st126{fill:#A7A9AB;}
	.st127{fill:url(#SVGID_00000137112135803570691720000008195049179100862373_);}
	.st128{fill:url(#SVGID_00000001626234938186348580000004937992666058081934_);}
	.st129{fill:url(#SVGID_00000018207964196920122900000015168058256485036432_);}
	.st130{fill:url(#SVGID_00000058579939828586208600000011750256784271537313_);}
	.st131{fill:url(#SVGID_00000173847098011682212660000000353735155350339763_);}
	.st132{fill:url(#SVGID_00000097494540233263823440000009830208976212499858_);}
	.st133{fill:url(#SVGID_00000134943181003001887470000015004210132184557470_);}
	.st134{fill:#70767A;}
</style>
<g>
	<rect y="0" class="st16" width="500" height="500"/>
	<g>
		<path class="st17" d="M155.1,258.5c26.6,38.3,93.6,40.4,138.5,23s50.7-48.5,47.4-78.7s-30.8-92.2-95-100
			C153.1,91.5,127.1,218.3,155.1,258.5z"/>
		<path class="st18" d="M339.5,194.1c-5.1-23.5-21.6-57.9-53.1-77.3c-8.8-1.5-16.4-2.5-16.7-2l22.9,20.8c0,0,20.8,22.6,32.1,45.8
			C329.5,191.4,334.9,194.2,339.5,194.1z"/>
		<path class="st18" d="M144.6,208.5c5.7-0.6,11.3-4.2,13.9-14.5c6.1-24.4,21.1-51,21.1-51l27.2-14.8c0,0-18.4,2-34.1,3.8
			C155.1,153.1,146,182.3,144.6,208.5z"/>
		<path class="st19" d="M166,140.8c10.6,4.8,35.1,13.6,74.3,13.4c32.4-0.2,55.1-10.8,68-19.3c-14.9-16-35.4-28.8-62.4-32.1
			C209,98.3,182.6,115.7,166,140.8z"/>
		<path class="st17" d="M448,500H52v-6.1c0-101.4,82.2-183.6,183.6-183.6h28.8c101.4,0,183.6,82.2,183.6,183.6V500z"/>
		<linearGradient id="SVGID_1_" gradientUnits="userSpaceOnUse" x1="250.2822" y1="288.0732" x2="250.2822" y2="383.3978">
			<stop  offset="0" style="stop-color:#4393C9"/>
			<stop  offset="1" style="stop-color:#0E6CA0"/>
		</linearGradient>
		<path class="st2" d="M250,370.4c49.4,0,81.8-27.3,95.2-41.4c-24.4-12-51.8-18.7-80.8-18.7h-28.8c-28.8,0-56,6.6-80.2,18.4l0,0
			C155.4,328.7,183.6,370.4,250,370.4z"/>
		
			<linearGradient id="SVGID_00000059307492411614144780000005455558797738784435_" gradientUnits="userSpaceOnUse" x1="89.5804" y1="344.2856" x2="89.5804" y2="487.262">
			<stop  offset="0" style="stop-color:#4393C9"/>
			<stop  offset="1" style="stop-color:#0E6CA0"/>
		</linearGradient>
		<path style="fill:url(#SVGID_00000059307492411614144780000005455558797738784435_);" d="M127.1,345.8
			C81.6,379.2,52,433.1,52,493.9v6.1h75.1V345.8z"/>
		
			<linearGradient id="SVGID_00000183232603181731125060000007981417311247062661_" gradientUnits="userSpaceOnUse" x1="410.4196" y1="344.2856" x2="410.4196" y2="487.262">
			<stop  offset="0" style="stop-color:#4393C9"/>
			<stop  offset="1" style="stop-color:#0E6CA0"/>
		</linearGradient>
		<path style="fill:url(#SVGID_00000183232603181731125060000007981417311247062661_);" d="M372.9,345.8
			c45.5,33.4,75.1,87.3,75.1,148.1v6.1h-75.1V345.8z"/>
		
			<linearGradient id="SVGID_00000035524802189943727420000015733808489190052745_" gradientUnits="userSpaceOnUse" x1="142.8306" y1="283.4709" x2="188.9614" y2="233.3685">
			<stop  offset="0" style="stop-color:#4393C9"/>
			<stop  offset="1" style="stop-color:#0E6CA0"/>
		</linearGradient>
		<path style="fill:url(#SVGID_00000035524802189943727420000015733808489190052745_);" d="M145,227.5c1.3,12.5,4.7,23.4,10,31.1
			c8.5,12.3,21.2,20.8,36,26.2C191.6,243.3,164.2,231,145,227.5z"/>
		
			<linearGradient id="SVGID_00000058548627713019436580000000394045372752468643_" gradientUnits="userSpaceOnUse" x1="341.697" y1="272.8332" x2="304.4257" y2="229.1464">
			<stop  offset="0" style="stop-color:#4393C9"/>
			<stop  offset="1" style="stop-color:#0E6CA0"/>
		</linearGradient>
		<path style="fill:url(#SVGID_00000058548627713019436580000000394045372752468643_);" d="M341.7,220.3
			c-15.3,3.6-45.4,16.2-40.2,57.9C331.5,264,340.7,242.7,341.7,220.3z"/>
		<g>
			<g>
				<g>
					<path class="st19" d="M186.4,255.1c-26,0-47.2-21.2-47.2-47.2c0-26,21.2-47.2,47.2-47.2c26,0,47.2,21.2,47.2,47.2
						C233.6,233.9,212.4,255.1,186.4,255.1z M186.4,172.3c-19.6,0-35.6,16-35.6,35.6s16,35.6,35.6,35.6c19.6,0,35.6-16,35.6-35.6
						S206,172.3,186.4,172.3z"/>
				</g>
				<g>
					<path class="st19" d="M297,255.1c-26,0-47.2-21.2-47.2-47.2c0-26,21.2-47.2,47.2-47.2c26,0,47.2,21.2,47.2,47.2
						C344.2,233.9,323,255.1,297,255.1z M297,172.3c-19.6,0-35.6,16-35.6,35.6s16,35.6,35.6,35.6c19.6,0,35.6-16,35.6-35.6
						S316.6,172.3,297,172.3z"/>
				</g>
				<g>
					<path class="st19" d="M253.7,210.8c-8.1-5.4-15.9-5.4-23.9,0l-3.9-5.8c10.5-7,21.2-7,31.7,0L253.7,210.8z"/>
				</g>
			</g>
		</g>
	</g>
</g>
</svg>
