<?xml version="1.0" encoding="utf-8"?>
<!-- Generator: Adobe Illustrator 27.6.1, SVG Export Plug-In . SVG Version: 6.00 Build 0)  -->
<svg version="1.1" id="Layer_1" xmlns="http://www.w3.org/2000/svg" xmlns:xlink="http://www.w3.org/1999/xlink" x="0px" y="0px"
	 viewBox="0 0 500 500" style="enable-background:new 0 0 500 500;" xml:space="preserve">
<style type="text/css">
	.st0{fill:#FE85B5;}
	.st1{fill:#D35789;}
	.st2{fill:url(#SVGID_1_);}
	.st3{fill:url(#SVGID_00000058565813963810673730000002494515133670014087_);}
	.st4{fill:url(#SVGID_00000144311951545535955280000000481691275253570473_);}
	.st5{fill:url(#SVGID_00000053546394249517323510000012493857717142698679_);}
	.st6{fill:url(#SVGID_00000175322992786412465600000014451602772289635206_);}
	.st7{fill:#51BE9F;}
	.st8{fill:#167251;}
	.st9{fill:#158962;}
	.st10{fill:url(#SVGID_00000109738563305713565320000002222599083525483929_);}
	.st11{fill:url(#SVGID_00000014632112700258718620000015959636091099477642_);}
	.st12{fill:url(#SVGID_00000067226259187281974800000010301664196413495470_);}
	.st13{fill:url(#SVGID_00000084503423823120869250000013421489087146566821_);}
	.st14{fill:url(#SVGID_00000088125055904066064210000016957332103790473655_);}
	.st15{fill:#137F58;}
	.st16{fill:#80BEF0;}
	.st17{fill:#4393C9;}
	.st18{fill:#387EB2;}
	.st19{fill:#2B6BA0;}
	.st20{fill:url(#SVGID_00000027562069013952859050000015583912327957071018_);}
	.st21{fill:url(#SVGID_00000051344780180440252680000006324076826617428128_);}
	.st22{fill:url(#SVGID_00000148629951373754553220000012013013659351284146_);}
	.st23{fill:url(#SVGID_00000004524155027618825440000011926174138528134283_);}
	.st24{fill:url(#SVGID_00000117665792958035442440000002999786523374450595_);}
	.st25{fill:#8E5FC1;}
	.st26{fill:#684381;}
	.st27{fill:url(#SVGID_00000039836798711590987900000012134476131492633529_);}
	.st28{fill:url(#SVGID_00000018219611979430443850000008314239234728173244_);}
	.st29{fill:url(#SVGID_00000078046244375704304690000012400639929041318313_);}
	.st30{fill:url(#SVGID_00000042715584657657073170000012053795564095462044_);}
	.st31{fill:url(#SVGID_00000164498996124229541280000013674733838807398805_);}
	.st32{fill:#5A3B72;}
	.st33{fill:#6B3737;}
	.st34{fill:#4C1D1D;}
	.st35{fill:url(#SVGID_00000164501631748355931360000004623811814663656849_);}
	.st36{fill:url(#SVGID_00000080915801972674572540000006458810235031899528_);}
	.st37{fill:url(#SVGID_00000141449040219237115770000017596167883643889798_);}
	.st38{fill:url(#SVGID_00000017502713065849957490000016855160498880639167_);}
	.st39{fill:url(#SVGID_00000058588005847034132980000003473123971290484900_);}
	.st40{fill:url(#SVGID_00000023969848589084606340000003839690438318566812_);}
	.st41{fill:#706964;}
	.st42{fill:url(#SVGID_00000064324629259695801630000001779286442222422156_);}
	.st43{fill:url(#SVGID_00000083803324970973908190000016920611882870843527_);}
	.st44{fill:#514740;}
	.st45{fill:url(#SVGID_00000079484362278599357060000012060849701019540108_);}
	.st46{fill:url(#SVGID_00000030469670919619245740000014125404278789989565_);}
	.st47{fill:url(#SVGID_00000057835232068887180810000011732302080300660641_);}
	.st48{fill:url(#SVGID_00000110434035125249072140000006875699495465555083_);}
	.st49{fill:url(#SVGID_00000084489521614778343560000013949297181487597718_);}
	.st50{fill:url(#SVGID_00000007408111592439685350000002089496812821542061_);}
	.st51{fill:url(#SVGID_00000158709534787856506450000006433037564830320794_);}
	.st52{fill:#7472DD;}
	.st53{fill:url(#SVGID_00000038413633340718368360000009632278391628877463_);}
	.st54{fill:#4F4CC2;}
	.st55{fill:url(#SVGID_00000156562955022130707380000014868801208133833621_);}
	.st56{fill:url(#SVGID_00000000224415636459012580000001959354220582607292_);}
	.st57{fill:url(#SVGID_00000023993552730540434100000003893720714519045289_);}
	.st58{fill:url(#SVGID_00000072987856329881571300000006321597791081004698_);}
	.st59{fill:url(#SVGID_00000036969489354665004960000017812518938885371313_);}
	.st60{fill:url(#SVGID_00000013187667098229159980000013022705417607274634_);}
	.st61{fill:#FED1BE;}
	.st62{fill:url(#SVGID_00000139994096989369565600000010535983073268982166_);}
	.st63{fill:#F7A98D;}
	.st64{fill:url(#SVGID_00000103967070599450878530000007326931688397096320_);}
	.st65{fill:url(#SVGID_00000005970079855040955770000015721071688330736047_);}
	.st66{fill:url(#SVGID_00000144327143377125700240000010744122926817054113_);}
	.st67{fill:url(#SVGID_00000119838892181989189720000011664193159605387938_);}
	.st68{fill:url(#SVGID_00000032627101711354348490000009270358763703481752_);}
	.st69{fill:url(#SVGID_00000176039210301201230850000014278478680302228628_);}
	.st70{fill:#FDCD08;}
	.st71{fill:#FC940B;}
	.st72{fill:#DB7107;}
	.st73{fill:url(#SVGID_00000003066960853310040670000008443521103656661640_);}
	.st74{fill:url(#SVGID_00000007413392627895399150000007389209782606196901_);}
	.st75{fill:url(#SVGID_00000080168066806398411590000011459842919541596324_);}
	.st76{fill:url(#SVGID_00000075847077444361997800000005836710297283309445_);}
	.st77{fill:url(#SVGID_00000036211104555589310020000008422024224791316354_);}
	.st78{fill:url(#SVGID_00000065794595375643208130000004117398270518686397_);}
	.st79{fill:url(#SVGID_00000080179941312276143920000004234108173076065210_);}
	.st80{fill:#36C0E0;}
	.st81{fill:#2880BC;}
	.st82{fill:url(#SVGID_00000016785803506467599160000016731336192252759956_);}
	.st83{fill:url(#SVGID_00000151531870406296379010000005804330817440222382_);}
	.st84{fill:url(#SVGID_00000026146983591214207940000005741774315944089000_);}
	.st85{fill:url(#SVGID_00000060737517428663091610000012624664934275879099_);}
	.st86{fill:url(#SVGID_00000101103855322215579510000001933696900034288306_);}
	.st87{fill:url(#SVGID_00000160149703638042662870000006862976074448572295_);}
	.st88{fill:url(#SVGID_00000168799713716315927380000013492875572835749306_);}
	.st89{fill:url(#SVGID_00000140694861283356685450000006045524452985035673_);}
	.st90{fill:#205EA8;}
	.st91{fill:#A4DF9F;}
	.st92{fill:#6EA369;}
	.st93{fill:url(#SVGID_00000150104791693858407150000011405635999510679431_);}
	.st94{fill:url(#SVGID_00000039836575572608360960000007106219638862558636_);}
	.st95{fill:url(#SVGID_00000088814681997064788140000010316676928677715337_);}
	.st96{fill:url(#SVGID_00000032647138703572249570000016546272531073440160_);}
	.st97{fill:url(#SVGID_00000071548236516068582770000011761544291981044148_);}
	.st98{fill:url(#SVGID_00000170995726263825114470000013924202344747105154_);}
	.st99{fill:#E23466;}
	.st100{fill:#A80759;}
	.st101{fill:url(#SVGID_00000101085526817212599460000010238212476011834513_);}
	.st102{fill:url(#SVGID_00000137846283132502809430000008818281550344208263_);}
	.st103{fill:url(#SVGID_00000058555599718295615670000010452496608404543138_);}
	.st104{fill:url(#SVGID_00000012452733557241081720000004719980507501962411_);}
	.st105{fill:url(#SVGID_00000098217863985695674050000003516541049946472840_);}
	.st106{fill:#7C1352;}
	.st107{fill:#840D54;}
	.st108{fill:#FFD8E3;}
	.st109{fill:#EFA3BB;}
	.st110{fill:url(#SVGID_00000142854258651667696280000001169315735547721131_);}
	.st111{fill:url(#SVGID_00000012463180117026721230000001286708491754446508_);}
	.st112{fill:url(#SVGID_00000173865696704631997360000009085184754424664206_);}
	.st113{fill:url(#SVGID_00000100379417964587852480000008353838675953180582_);}
	.st114{fill:url(#SVGID_00000103958814297731876740000011824374043472440985_);}
	.st115{fill:url(#SVGID_00000009588114766598405760000006950310720517508025_);}
	.st116{fill:url(#SVGID_00000083064642383939025740000012860911764060591278_);}
	.st117{fill:#F4AD6E;}
	.st118{fill:#784726;}
	.st119{fill:#AB6A3C;}
	.st120{fill:url(#SVGID_00000101817497838882713400000006932368116704994973_);}
	.st121{fill:url(#SVGID_00000057140391986129542680000001450600250976228027_);}
	.st122{fill:url(#SVGID_00000033328754277414663760000012504841298196097197_);}
	.st123{fill:url(#SVGID_00000128471993232389700380000016385893672604277155_);}
	.st124{fill:url(#SVGID_00000047739255648232704700000004774148110975302838_);}
	.st125{fill:#E9E9E9;}
	.st126{fill:#A7A9AB;}
	.st127{fill:url(#SVGID_00000106839301642199664120000012108595212896111785_);}
	.st128{fill:url(#SVGID_00000023991639423465210970000006881207256016474776_);}
	.st129{fill:url(#SVGID_00000090286615467939522520000011867784745712562572_);}
	.st130{fill:url(#SVGID_00000152964061071532032000000016448713551612487303_);}
	.st131{fill:url(#SVGID_00000156581316860817176000000015564463594562650271_);}
	.st132{fill:url(#SVGID_00000183217789802443348300000003844633248250546833_);}
	.st133{fill:url(#SVGID_00000034798677734500154260000012927443781909020832_);}
	.st134{fill:#70767A;}
</style>
<g>
	<rect y="0" class="st61" width="500" height="500"/>
	<g>
		<g>
			<linearGradient id="SVGID_1_" gradientUnits="userSpaceOnUse" x1="235.7652" y1="51.7672" x2="235.7652" y2="346.3543">
				<stop  offset="0" style="stop-color:#D87F64"/>
				<stop  offset="1" style="stop-color:#D86E5D"/>
			</linearGradient>
			<path class="st2" d="M305,396.8c21.9-2.2,44.4-7.6,62.1-22c17.6-14.4,29.3-39.7,23.7-63c5.3,7.1,16.3,6.6,22.5,0.4
				s8-16.4,6.6-25.4s-5.6-17.3-9.9-25.2c-8.3-15.3-17.3-30.3-22.7-47.1c-9.3-29.6-6.4-62.6-16-92C363,97.1,345.5,75.7,323.6,64
				c-22-11.8-48.1-13.7-71.3-5.4l1.9-0.1c-26.8-12.3-58.8-7.2-83.5,9.7s-42.3,44.4-52.2,74.3c-9.8,30-12.3,62.3-11.3,94.1
				c0.2,6.9,0.5,14.1-2.4,20.1c-2.8,5.8-8.1,9.5-13.2,13c-11.8,8.2-23.7,16.9-31.8,29.3s-11.7,29.5-5.5,43.2
				c6.1,13.7,23.9,20.8,35.1,11.7c-1.9,15.3,6.2,30.7,18,39.2s26.5,10.8,40.6,9.4c14-1.4,27.6-6.2,41-11L305,396.8z"/>
		</g>
		<path class="st63" d="M155.1,258.5c26.6,38.3,93.6,40.4,138.5,23s50.7-48.5,47.4-78.7s-30.8-92.2-95-100
			C153.1,91.5,127.1,218.3,155.1,258.5z"/>
		<path class="st63" d="M448,500H52v-6.1c0-101.4,82.2-183.6,183.6-183.6h28.8c101.4,0,183.6,82.2,183.6,183.6V500z"/>
		
			<linearGradient id="SVGID_00000109730336670149295790000002108735839995597216_" gradientUnits="userSpaceOnUse" x1="256.2869" y1="284.2408" x2="246.6636" y2="355.7283">
			<stop  offset="5.586592e-03" style="stop-color:#F7A98D"/>
			<stop  offset="1" style="stop-color:#D87F64"/>
		</linearGradient>
		<path style="fill:url(#SVGID_00000109730336670149295790000002108735839995597216_);" d="M250,370.4c49.4,0,81.8-27.3,95.2-41.4
			c-24.4-12-51.8-18.7-80.8-18.7h-28.8c-28.8,0-56,6.6-80.2,18.4l0,0C155.4,328.7,183.6,370.4,250,370.4z"/>
		
			<linearGradient id="SVGID_00000025429728607039893460000005301069563668109702_" gradientUnits="userSpaceOnUse" x1="89.5804" y1="336.6481" x2="89.5804" y2="489.3456">
			<stop  offset="5.586592e-03" style="stop-color:#F7A98D"/>
			<stop  offset="1" style="stop-color:#D87F64"/>
		</linearGradient>
		<path style="fill:url(#SVGID_00000025429728607039893460000005301069563668109702_);" d="M127.1,345.8
			C81.6,379.2,52,433.1,52,493.9v6.1h75.1V345.8z"/>
		
			<linearGradient id="SVGID_00000170982829837472755850000012641061724593558462_" gradientUnits="userSpaceOnUse" x1="410.4196" y1="336.6481" x2="410.4196" y2="489.3456">
			<stop  offset="5.586592e-03" style="stop-color:#F7A98D"/>
			<stop  offset="1" style="stop-color:#D87F64"/>
		</linearGradient>
		<path style="fill:url(#SVGID_00000170982829837472755850000012641061724593558462_);" d="M372.9,345.8
			c45.5,33.4,75.1,87.3,75.1,148.1v6.1h-75.1V345.8z"/>
		
			<linearGradient id="SVGID_00000134936374929586310160000011677161196946922166_" gradientUnits="userSpaceOnUse" x1="144.5086" y1="277.6139" x2="182.0854" y2="243.2448">
			<stop  offset="5.586592e-03" style="stop-color:#F7A98D"/>
			<stop  offset="1" style="stop-color:#D87F64"/>
		</linearGradient>
		<path style="fill:url(#SVGID_00000134936374929586310160000011677161196946922166_);" d="M145,227.5c1.3,12.5,4.7,23.4,10,31.1
			c8.5,12.3,21.2,20.8,36,26.2C191.6,243.3,164.2,231,145,227.5z"/>
		
			<linearGradient id="SVGID_00000014620399921589251880000008830227588140626830_" gradientUnits="userSpaceOnUse" x1="342.16" y1="268.9453" x2="310.0823" y2="238.2424">
			<stop  offset="5.586592e-03" style="stop-color:#F7A98D"/>
			<stop  offset="1" style="stop-color:#D87F64"/>
		</linearGradient>
		<path style="fill:url(#SVGID_00000014620399921589251880000008830227588140626830_);" d="M341.7,220.3
			c-15.3,3.6-45.4,16.2-40.2,57.9C331.5,264,340.7,242.7,341.7,220.3z"/>
		<g>
			
				<linearGradient id="SVGID_00000020369064825657542130000013183112236344284554_" gradientUnits="userSpaceOnUse" x1="243.7489" y1="52.0727" x2="243.7489" y2="346.6598">
				<stop  offset="0" style="stop-color:#D87F64"/>
				<stop  offset="1" style="stop-color:#D86E5D"/>
			</linearGradient>
			<path style="fill:url(#SVGID_00000020369064825657542130000013183112236344284554_);" d="M240.9,135c1.2,16.6,11.9,32.1,27,39.1
				c15.1,7,33.9,5,47.3-4.9c2.9,8.5,7.1,18.1,15.8,20.3c5.3,1.3,11-0.8,14.9-4.6c3.9-3.8,6-9.1,6.8-14.5c1.5-10.8-2.2-21.8-8.4-30.7
				s-14.8-15.9-23.9-21.9c-22.1-14.8-47.8-24.6-74.3-26.2c-26.5-1.6-53.8,5.5-75,21.6s-35.7,41.3-36.8,67.8c-0.1,1.8,0,3.8,1,5.2
				c1.3,1.8,3.6,2.3,5.8,2.6c20.3,3.2,41.6-0.6,59.6-10.5c18-9.9,32.6-25.9,40.7-44.7"/>
		</g>
	</g>
</g>
</svg>
