<?xml version="1.0" encoding="utf-8"?>
<!-- Generator: Adobe Illustrator 27.6.1, SVG Export Plug-In . SVG Version: 6.00 Build 0)  -->
<svg version="1.1" id="Layer_1" xmlns="http://www.w3.org/2000/svg" xmlns:xlink="http://www.w3.org/1999/xlink" x="0px" y="0px"
	 viewBox="0 0 500 500" style="enable-background:new 0 0 500 500;" xml:space="preserve">
<style type="text/css">
	.st0{fill:#FE85B5;}
	.st1{fill:#D35789;}
	.st2{fill:url(#SVGID_1_);}
	.st3{fill:url(#SVGID_00000096743519357404587700000015078074461469817220_);}
	.st4{fill:url(#SVGID_00000148623155320191550360000016492832625026371461_);}
	.st5{fill:url(#SVGID_00000181078646721595874800000002419718547313836472_);}
	.st6{fill:url(#SVGID_00000065035599591803397280000009426970576880008374_);}
	.st7{fill:#51BE9F;}
	.st8{fill:#167251;}
	.st9{fill:#158962;}
	.st10{fill:url(#SVGID_00000061458282575552352590000001582704486462572952_);}
	.st11{fill:url(#SVGID_00000119083150708069805170000011531139880189985434_);}
	.st12{fill:url(#SVGID_00000028300702596646422140000000630716695293162156_);}
	.st13{fill:url(#SVGID_00000152986437533099299490000000342172226252096145_);}
	.st14{fill:url(#SVGID_00000052076825233322739230000011896809427084755371_);}
	.st15{fill:#137F58;}
	.st16{fill:#80BEF0;}
	.st17{fill:#4393C9;}
	.st18{fill:#387EB2;}
	.st19{fill:#2B6BA0;}
	.st20{fill:url(#SVGID_00000110447236618105170970000008390720666813859240_);}
	.st21{fill:url(#SVGID_00000013189998230983193320000018257846435774111892_);}
	.st22{fill:url(#SVGID_00000057869552773311997090000011039211870739113906_);}
	.st23{fill:url(#SVGID_00000144304073268448087730000006219517083555072660_);}
	.st24{fill:url(#SVGID_00000105398067753539597500000010126111266435328908_);}
	.st25{fill:#8E5FC1;}
	.st26{fill:#684381;}
	.st27{fill:url(#SVGID_00000145041241678051208720000002351873754053252997_);}
	.st28{fill:url(#SVGID_00000078753399982508311810000011449795721013311887_);}
	.st29{fill:url(#SVGID_00000085953128185009794320000003550823766094726296_);}
	.st30{fill:url(#SVGID_00000171689296863500305540000010031778374954643847_);}
	.st31{fill:url(#SVGID_00000167383261845375100890000010814903356493944711_);}
	.st32{fill:#5A3B72;}
	.st33{fill:#6B3737;}
	.st34{fill:#4C1D1D;}
	.st35{fill:url(#SVGID_00000078752761398263894380000016979167498282800033_);}
	.st36{fill:url(#SVGID_00000070099909235820229560000003381972345707781004_);}
	.st37{fill:url(#SVGID_00000150100029141015622210000008880541083499246752_);}
	.st38{fill:url(#SVGID_00000054978229443939144310000015524172445405691531_);}
	.st39{fill:url(#SVGID_00000049201221105131125370000003131124030146168223_);}
	.st40{fill:url(#SVGID_00000089533412909644121590000009965802320152083132_);}
	.st41{fill:#706964;}
	.st42{fill:url(#SVGID_00000109719470343230514800000016180361390291076258_);}
	.st43{fill:url(#SVGID_00000117654793475685890490000010403566813788344705_);}
	.st44{fill:#514740;}
	.st45{fill:url(#SVGID_00000013178379083319058490000007714399419845053852_);}
	.st46{fill:url(#SVGID_00000049916363452404725580000017772979972342660282_);}
	.st47{fill:url(#SVGID_00000169517657678130367510000002516312089821384612_);}
	.st48{fill:url(#SVGID_00000177457050197908353850000016497054496279835322_);}
	.st49{fill:url(#SVGID_00000042707924268603611570000003936185730454310581_);}
	.st50{fill:url(#SVGID_00000141438694429918125080000003366779863169912492_);}
	.st51{fill:url(#SVGID_00000161628338770039577720000013140407978026326692_);}
	.st52{fill:#7472DD;}
	.st53{fill:url(#SVGID_00000114788978558197046350000016222702968120178328_);}
	.st54{fill:#4F4CC2;}
	.st55{fill:url(#SVGID_00000078748687244587930900000017277922901400104846_);}
	.st56{fill:url(#SVGID_00000171721826020076796980000009541349625355920525_);}
	.st57{fill:url(#SVGID_00000071531912455858666870000003877039876728278696_);}
	.st58{fill:url(#SVGID_00000160886882029521465030000009107134973591622071_);}
	.st59{fill:url(#SVGID_00000016043100135919231400000002395752592434678695_);}
	.st60{fill:url(#SVGID_00000121967437586040005040000000910395622051195052_);}
	.st61{fill:#FED1BE;}
	.st62{fill:url(#SVGID_00000165947954059623257920000010264840444961302946_);}
	.st63{fill:#F7A98D;}
	.st64{fill:url(#SVGID_00000169519331936383717910000004104591146392139417_);}
	.st65{fill:url(#SVGID_00000037656262469233868350000012838506193715690658_);}
	.st66{fill:url(#SVGID_00000020387266170450023620000008587415100296096168_);}
	.st67{fill:url(#SVGID_00000176733982114386991470000016568872701741399736_);}
	.st68{fill:url(#SVGID_00000173853574389631022190000012872707464639260032_);}
	.st69{fill:url(#SVGID_00000131333179336891461560000009360791079247833227_);}
	.st70{fill:#FDCD08;}
	.st71{fill:#FC940B;}
	.st72{fill:#DB7107;}
	.st73{fill:url(#SVGID_00000002350458025422213460000015458847317682783627_);}
	.st74{fill:url(#SVGID_00000134247304193765564720000014414038363232020388_);}
	.st75{fill:url(#SVGID_00000144309849157379117080000001053697225054207651_);}
	.st76{fill:url(#SVGID_00000073710847891549005120000011106508682764855216_);}
	.st77{fill:url(#SVGID_00000054248845191996493000000001105935821529227938_);}
	.st78{fill:url(#SVGID_00000030486305113769351210000003155843135276215434_);}
	.st79{fill:url(#SVGID_00000178199284205264887170000008435126334337930373_);}
	.st80{fill:#36C0E0;}
	.st81{fill:#2880BC;}
	.st82{fill:url(#SVGID_00000051376674122062600130000013691925372086874803_);}
	.st83{fill:url(#SVGID_00000043420315292366606150000000432845241295397805_);}
	.st84{fill:url(#SVGID_00000164486108885089527540000011165657831237756803_);}
	.st85{fill:url(#SVGID_00000031929134740522013570000012444774244981808029_);}
	.st86{fill:url(#SVGID_00000013193482341225812120000009916212121751772331_);}
	.st87{fill:url(#SVGID_00000033329968283966766770000002181367888886240166_);}
	.st88{fill:url(#SVGID_00000023282842765121079840000016334094403940954518_);}
	.st89{fill:url(#SVGID_00000150790843196203677220000002490644506047025598_);}
	.st90{fill:#205EA8;}
	.st91{fill:#A4DF9F;}
	.st92{fill:#6EA369;}
	.st93{fill:url(#SVGID_00000085226695777009099270000007288812558312451006_);}
	.st94{fill:url(#SVGID_00000009582720045763609220000012567137288281344177_);}
	.st95{fill:url(#SVGID_00000018227798935920924070000014543857815427403194_);}
	.st96{fill:url(#SVGID_00000098214858859576017120000006775487770127252392_);}
	.st97{fill:url(#SVGID_00000018941077981713268780000011270500358452951437_);}
	.st98{fill:url(#SVGID_00000143591193186349185120000017763320489729433760_);}
	.st99{fill:#E23466;}
	.st100{fill:#A80759;}
	.st101{fill:url(#SVGID_00000011723655799130340780000016654315808882434966_);}
	.st102{fill:url(#SVGID_00000021085168439927838460000013791716516906682246_);}
	.st103{fill:url(#SVGID_00000061433615390595969560000018240404971389655958_);}
	.st104{fill:url(#SVGID_00000001638728464992895280000007319015500701821877_);}
	.st105{fill:url(#SVGID_00000073695588989692221710000002316553499228764289_);}
	.st106{fill:#7C1352;}
	.st107{fill:#840D54;}
	.st108{fill:#FFD8E3;}
	.st109{fill:#EFA3BB;}
	.st110{fill:url(#SVGID_00000078741778862436666530000005023046645897629102_);}
	.st111{fill:url(#SVGID_00000121259769508881539910000008245148696917663108_);}
	.st112{fill:url(#SVGID_00000147192808461115849100000008900515799114481303_);}
	.st113{fill:url(#SVGID_00000004546839299270961360000011303648817953671586_);}
	.st114{fill:url(#SVGID_00000113311004457070227540000001854044129154063239_);}
	.st115{fill:url(#SVGID_00000106129497644329311370000006319583707883856047_);}
	.st116{fill:url(#SVGID_00000176042605402346631150000006867377929961872306_);}
	.st117{fill:#F4AD6E;}
	.st118{fill:#784726;}
	.st119{fill:#AB6A3C;}
	.st120{fill:url(#SVGID_00000099651375076290965140000015684613861777410484_);}
	.st121{fill:url(#SVGID_00000178172345706245026160000001760956619785984185_);}
	.st122{fill:url(#SVGID_00000045584654539246353470000004132707191005991554_);}
	.st123{fill:url(#SVGID_00000176738896629245191420000010815511583800807581_);}
	.st124{fill:url(#SVGID_00000090259947480177562630000009467448712346099615_);}
	.st125{fill:#E9E9E9;}
	.st126{fill:#A7A9AB;}
	.st127{fill:url(#SVGID_00000140006244897313227930000009995873848166924443_);}
	.st128{fill:url(#SVGID_00000142162060874577319370000010860783043364489109_);}
	.st129{fill:url(#SVGID_00000032618427088195496810000015978851517983465856_);}
	.st130{fill:url(#SVGID_00000039847032079682428050000007539105084955199627_);}
	.st131{fill:url(#SVGID_00000010989101089288863780000015599127516815409329_);}
	.st132{fill:url(#SVGID_00000023972053369973587740000017880885835365524110_);}
	.st133{fill:url(#SVGID_00000111884833907369953610000014854784657310208947_);}
	.st134{fill:#70767A;}
</style>
<g>
	<rect y="0" class="st70" width="500" height="500"/>
	<g>
		<path class="st71" d="M155.1,258.5c26.6,38.3,93.6,40.4,138.5,23s50.7-48.5,47.4-78.7s-30.8-92.2-95-100
			C153.1,91.5,127.1,218.3,155.1,258.5z"/>
		<path class="st72" d="M252.9,188c0,0-15,54.2,33.3,49.9c46.9-4.1,33.2-49.9,33.2-49.9H252.9z"/>
		<path class="st71" d="M448,500H52v-6.1c0-101.4,82.2-183.6,183.6-183.6h28.8c101.4,0,183.6,82.2,183.6,183.6V500z"/>
		<linearGradient id="SVGID_1_" gradientUnits="userSpaceOnUse" x1="250.2822" y1="303.4502" x2="250.2822" y2="363.9674">
			<stop  offset="5.586592e-03" style="stop-color:#FC940B"/>
			<stop  offset="1" style="stop-color:#DB7107"/>
		</linearGradient>
		<path class="st2" d="M250,370.4c49.4,0,81.8-27.3,95.2-41.4c-24.4-12-51.8-18.7-80.8-18.7h-28.8c-28.8,0-56,6.6-80.2,18.4l0,0
			C155.4,328.7,183.6,370.4,250,370.4z"/>
		
			<linearGradient id="SVGID_00000027606398815340639960000012446724498040731010_" gradientUnits="userSpaceOnUse" x1="89.5804" y1="332.7784" x2="89.5804" y2="467.5115">
			<stop  offset="5.586592e-03" style="stop-color:#FC940B"/>
			<stop  offset="1" style="stop-color:#DB7107"/>
		</linearGradient>
		<path style="fill:url(#SVGID_00000027606398815340639960000012446724498040731010_);" d="M127.1,345.8
			C81.6,379.2,52,433.1,52,493.9v6.1h75.1V345.8z"/>
		
			<linearGradient id="SVGID_00000081634710236569433150000017699742035915604904_" gradientUnits="userSpaceOnUse" x1="410.4196" y1="332.7784" x2="410.4196" y2="467.5115">
			<stop  offset="5.586592e-03" style="stop-color:#FC940B"/>
			<stop  offset="1" style="stop-color:#DB7107"/>
		</linearGradient>
		<path style="fill:url(#SVGID_00000081634710236569433150000017699742035915604904_);" d="M372.9,345.8
			c45.5,33.4,75.1,87.3,75.1,148.1v6.1h-75.1V345.8z"/>
		
			<linearGradient id="SVGID_00000018224630200882094950000009559375355321168318_" gradientUnits="userSpaceOnUse" x1="145.8701" y1="279.6467" x2="184.9744" y2="238.0984">
			<stop  offset="5.586592e-03" style="stop-color:#FC940B"/>
			<stop  offset="1" style="stop-color:#DB7107"/>
		</linearGradient>
		<path style="fill:url(#SVGID_00000018224630200882094950000009559375355321168318_);" d="M145,227.5c1.3,12.5,4.7,23.4,10,31.1
			c8.5,12.3,21.2,20.8,36,26.2C191.6,243.3,164.2,231,145,227.5z"/>
		
			<linearGradient id="SVGID_00000085966794771979514800000014952422743498911649_" gradientUnits="userSpaceOnUse" x1="343.0145" y1="267.6386" x2="299.9387" y2="230.6729">
			<stop  offset="5.586592e-03" style="stop-color:#FC940B"/>
			<stop  offset="1" style="stop-color:#DB7107"/>
		</linearGradient>
		<path style="fill:url(#SVGID_00000085966794771979514800000014952422743498911649_);" d="M341.7,220.3
			c-15.3,3.6-45.4,16.2-40.2,57.9C331.5,264,340.7,242.7,341.7,220.3z"/>
		<g>
			
				<linearGradient id="SVGID_00000138554436853155666940000001707773091630196104_" gradientUnits="userSpaceOnUse" x1="226.7221" y1="126.1416" x2="246.8853" y2="184.7981">
				<stop  offset="5.586592e-03" style="stop-color:#FC940B"/>
				<stop  offset="1" style="stop-color:#DB7107"/>
			</linearGradient>
			<path style="fill:url(#SVGID_00000138554436853155666940000001707773091630196104_);" d="M288,193.6c-13.9,0-29.1-0.4-43.8-1.6
				c-43.9-3.7-92.3-17.5-92.8-17.7c-2.2-0.6-3.4-2.9-2.8-5c0.6-2.2,2.9-3.4,5-2.8c0.5,0.1,48.2,13.8,91.2,17.4
				c43.1,3.6,91.7,0,92.2,0c2.2-0.2,4.2,1.5,4.3,3.7s-1.5,4.2-3.7,4.3C337.4,192,315.5,193.6,288,193.6z"/>
		</g>
		
			<linearGradient id="SVGID_00000073711557325254864670000016732453491491353507_" gradientUnits="userSpaceOnUse" x1="198.5396" y1="26.8167" x2="236.4266" y2="137.0335">
			<stop  offset="5.586592e-03" style="stop-color:#FC940B"/>
			<stop  offset="1" style="stop-color:#DB7107"/>
		</linearGradient>
		<path style="fill:url(#SVGID_00000073711557325254864670000016732453491491353507_);" d="M92.3,141.8c0,0-4.6,29.2,78.2,35.2
			c192.8,14,221.4-21.9,213.9-36.4c-7.4-14.2-44.1-9.3-57.1-18.5C310.8,110.6,313,38.7,224,47.4c-57.1,5.6-52.4,63.9-71.7,76.6
			S92.3,127.8,92.3,141.8z"/>
		<g>
			<path class="st71" d="M264.3,100.1c0-13.3-10.8-20.4-24.1-20.4S216,86.8,216,100.1c0,8.9,4.8,12.7,11.9,14.3
				c0.1,2.9,1,6.2,4.4,6.9c6,1.2,13.9,1.3,17.1-0.5c1.9-1.1,2.4-3.8,2.5-6.3C259.3,113,264.3,109.2,264.3,100.1z"/>
			<path class="st72" d="M241.8,103.7c-0.9-0.8-2.3-0.8-3.1,0c-1.5,1.5-3.3,3.9-1.9,5.2c2.1,2,3.4-1.6,3.4-1.6s1,2.7,2.9,1.7
				C244.7,108.3,244.1,105.9,241.8,103.7z"/>
			<g>
				<ellipse class="st72" cx="232.3" cy="97.1" rx="5.6" ry="7.7"/>
				<ellipse class="st72" cx="248.1" cy="97.1" rx="5.6" ry="7.7"/>
			</g>
		</g>
	</g>
</g>
</svg>
