<?xml version="1.0" encoding="utf-8"?>
<!-- Generator: Adobe Illustrator 27.6.1, SVG Export Plug-In . SVG Version: 6.00 Build 0)  -->
<svg version="1.1" id="Layer_1" xmlns="http://www.w3.org/2000/svg" xmlns:xlink="http://www.w3.org/1999/xlink" x="0px" y="0px"
	 viewBox="0 0 500 500" style="enable-background:new 0 0 500 500;" xml:space="preserve">
<style type="text/css">
	.st0{fill:#FE85B5;}
	.st1{fill:#D35789;}
	.st2{fill:url(#SVGID_1_);}
	.st3{fill:url(#SVGID_00000077308996819346108180000004033610700717173938_);}
	.st4{fill:url(#SVGID_00000175316618920111544180000000373176467623226556_);}
	.st5{fill:url(#SVGID_00000013166722790709584360000002066831169598326687_);}
	.st6{fill:url(#SVGID_00000013897787236082351940000016071131058918300801_);}
	.st7{fill:#51BE9F;}
	.st8{fill:#167251;}
	.st9{fill:#158962;}
	.st10{fill:url(#SVGID_00000037670933323297711540000017306016330419920266_);}
	.st11{fill:url(#SVGID_00000133500225193138876070000017766212488004380841_);}
	.st12{fill:url(#SVGID_00000163032600315509149450000007368403360901063592_);}
	.st13{fill:url(#SVGID_00000028316054354393648010000018234136461877473708_);}
	.st14{fill:url(#SVGID_00000016057638605192595590000012876096251772847026_);}
	.st15{fill:#137F58;}
	.st16{fill:#80BEF0;}
	.st17{fill:#4393C9;}
	.st18{fill:#387EB2;}
	.st19{fill:#2B6BA0;}
	.st20{fill:url(#SVGID_00000018930460500815475600000016813137511300832182_);}
	.st21{fill:url(#SVGID_00000037679195654670715030000013888959368423769770_);}
	.st22{fill:url(#SVGID_00000023964018076819991950000006467265337264837510_);}
	.st23{fill:url(#SVGID_00000021089744752555497980000014510275773257967246_);}
	.st24{fill:url(#SVGID_00000146469430332464738570000012152278876967086013_);}
	.st25{fill:#8E5FC1;}
	.st26{fill:#684381;}
	.st27{fill:url(#SVGID_00000057139632288028954200000017334903388980183425_);}
	.st28{fill:url(#SVGID_00000058591193292717821530000016284705988143995545_);}
	.st29{fill:url(#SVGID_00000161634060386187780770000001362085814846654902_);}
	.st30{fill:url(#SVGID_00000053537526982949021080000002948601919186986174_);}
	.st31{fill:url(#SVGID_00000088834412310492086710000004390147388841794718_);}
	.st32{fill:#5A3B72;}
	.st33{fill:#6B3737;}
	.st34{fill:#4C1D1D;}
	.st35{fill:url(#SVGID_00000030466879270066557660000002833412726384585355_);}
	.st36{fill:url(#SVGID_00000119809919268405824400000013890661869180937139_);}
	.st37{fill:url(#SVGID_00000005244538299592390800000018248235292430225550_);}
	.st38{fill:url(#SVGID_00000129183556062163683860000000939439004800655759_);}
	.st39{fill:url(#SVGID_00000137109385010801057640000005291953812682709936_);}
	.st40{fill:url(#SVGID_00000074399636416513524240000011121655671534037929_);}
	.st41{fill:#706964;}
	.st42{fill:url(#SVGID_00000031908180594498995290000014090219223003442085_);}
	.st43{fill:url(#SVGID_00000082355598224381421470000000826080947468543653_);}
	.st44{fill:#514740;}
	.st45{fill:url(#SVGID_00000054265361538250189880000016635563436457786548_);}
	.st46{fill:url(#SVGID_00000051354449664059285230000013505693167836381086_);}
	.st47{fill:url(#SVGID_00000031200966277866079200000003669735923662648731_);}
	.st48{fill:url(#SVGID_00000152974718717584050610000001395688422606402948_);}
	.st49{fill:url(#SVGID_00000093135156400842587350000015269750944996845717_);}
	.st50{fill:url(#SVGID_00000136406424567924569920000010109783889048180663_);}
	.st51{fill:url(#SVGID_00000101796491915294112440000008313707608132023701_);}
	.st52{fill:#7472DD;}
	.st53{fill:url(#SVGID_00000181073564334093007970000004061363862113091972_);}
	.st54{fill:#4F4CC2;}
	.st55{fill:url(#SVGID_00000013902512795106681370000007952399098581661855_);}
	.st56{fill:url(#SVGID_00000181794675875907873620000005586278233830043029_);}
	.st57{fill:url(#SVGID_00000003092810210617807550000012311906532935508390_);}
	.st58{fill:url(#SVGID_00000153664341199834547240000000783719208291805078_);}
	.st59{fill:url(#SVGID_00000011713575857196258710000013627092735772179350_);}
	.st60{fill:url(#SVGID_00000101820250099149855430000011674462809131059095_);}
	.st61{fill:#FED1BE;}
	.st62{fill:url(#SVGID_00000182516777788266405090000007396333645840273570_);}
	.st63{fill:#F7A98D;}
	.st64{fill:url(#SVGID_00000146481128738568756960000009654578861608685724_);}
	.st65{fill:url(#SVGID_00000119801013629083270500000009948849070540151967_);}
	.st66{fill:url(#SVGID_00000081646492236479569580000011011611162715959739_);}
	.st67{fill:url(#SVGID_00000159446778709766594590000015687762805908042910_);}
	.st68{fill:url(#SVGID_00000142166817391771193420000013487134556036199555_);}
	.st69{fill:url(#SVGID_00000101814748207790337200000001454907047625378716_);}
	.st70{fill:#FDCD08;}
	.st71{fill:#FC940B;}
	.st72{fill:#DB7107;}
	.st73{fill:url(#SVGID_00000075123541681258835060000007868240507540890265_);}
	.st74{fill:url(#SVGID_00000046325660709136540110000018303079126469612964_);}
	.st75{fill:url(#SVGID_00000064317069728438129830000011372825596520387714_);}
	.st76{fill:url(#SVGID_00000054962121722400811360000005342263611719054242_);}
	.st77{fill:url(#SVGID_00000131356682667647716670000008759650624714452394_);}
	.st78{fill:url(#SVGID_00000178184525414909578730000002015191934794597037_);}
	.st79{fill:url(#SVGID_00000009577030839073670460000013125090572006430346_);}
	.st80{fill:#36C0E0;}
	.st81{fill:#2880BC;}
	.st82{fill:url(#SVGID_00000062190736297693029080000014148115895186591662_);}
	.st83{fill:url(#SVGID_00000086678344571913805660000018040186580226185147_);}
	.st84{fill:url(#SVGID_00000154389039176743521370000011556138126011315348_);}
	.st85{fill:url(#SVGID_00000171696337301301518810000014689378349399463323_);}
	.st86{fill:url(#SVGID_00000021089838717553480760000000819526602047814800_);}
	.st87{fill:url(#SVGID_00000111909143110022804020000011826118981015100095_);}
	.st88{fill:url(#SVGID_00000057850252852658899810000006107304594758188457_);}
	.st89{fill:url(#SVGID_00000051371433656923000900000016694836052381347496_);}
	.st90{fill:#205EA8;}
	.st91{fill:#A4DF9F;}
	.st92{fill:#6EA369;}
	.st93{fill:url(#SVGID_00000148624188158881807610000015561266179421110688_);}
	.st94{fill:url(#SVGID_00000178181493606940500610000011785589703365616809_);}
	.st95{fill:url(#SVGID_00000043440169920324019360000011474423533553472692_);}
	.st96{fill:url(#SVGID_00000119826240858415737140000016941384847141629576_);}
	.st97{fill:url(#SVGID_00000003081368916196465140000017491203037479079838_);}
	.st98{fill:url(#SVGID_00000114794227737499096910000007171931717930510490_);}
	.st99{fill:#E23466;}
	.st100{fill:#A80759;}
	.st101{fill:url(#SVGID_00000020358941527192587640000017256482082595201449_);}
	.st102{fill:url(#SVGID_00000078023462237317445560000007632293494519935658_);}
	.st103{fill:url(#SVGID_00000045601811544819756970000010335891020200664979_);}
	.st104{fill:url(#SVGID_00000160882931143109013780000000520526586900208016_);}
	.st105{fill:url(#SVGID_00000039099481927022040910000012667255332466057352_);}
	.st106{fill:#7C1352;}
	.st107{fill:#840D54;}
	.st108{fill:#FFD8E3;}
	.st109{fill:#EFA3BB;}
	.st110{fill:url(#SVGID_00000078744078081235339730000013957065770269119388_);}
	.st111{fill:url(#SVGID_00000060001077614787492280000003056596977651724959_);}
	.st112{fill:url(#SVGID_00000099637489623111810040000015305908803812764564_);}
	.st113{fill:url(#SVGID_00000007421068198579385440000012364264775457397907_);}
	.st114{fill:url(#SVGID_00000082326477921437650650000008892539058651641758_);}
	.st115{fill:url(#SVGID_00000080901093903919628500000015435411924906185643_);}
	.st116{fill:url(#SVGID_00000075124904643748817790000003222014130852505260_);}
	.st117{fill:#F4AD6E;}
	.st118{fill:#784726;}
	.st119{fill:#AB6A3C;}
	.st120{fill:url(#SVGID_00000010311963905281291990000014235717033303987381_);}
	.st121{fill:url(#SVGID_00000021802824416834130330000011160125819071522229_);}
	.st122{fill:url(#SVGID_00000160877543483161131130000014233201825582193594_);}
	.st123{fill:url(#SVGID_00000054260228610422965860000013232946959566321031_);}
	.st124{fill:url(#SVGID_00000033327815691096374670000006370909237939019962_);}
	.st125{fill:#E9E9E9;}
	.st126{fill:#A7A9AB;}
	.st127{fill:url(#SVGID_00000114762078825988882290000004404670876679496367_);}
	.st128{fill:url(#SVGID_00000152980036425613915890000005802594314356726681_);}
	.st129{fill:url(#SVGID_00000060718650817142651280000003575539477642248075_);}
	.st130{fill:url(#SVGID_00000098937099851252001150000009542066987358930861_);}
	.st131{fill:url(#SVGID_00000101810961418216776260000017840711251418199687_);}
	.st132{fill:url(#SVGID_00000072262512457520267860000008046943946227002768_);}
	.st133{fill:url(#SVGID_00000063605707378743853490000014458047870175281805_);}
	.st134{fill:#70767A;}
</style>
<g>
	<rect y="0" class="st7" width="500" height="500"/>
	<g>
		<path class="st8" d="M172.6,180.4l-10.5,39.2c-15.6,6.9-67.6,12-63.7-6.1c3.8-18.1,58.7-39.9,58.7-39.9L172.6,180.4z"/>
		<path class="st9" d="M155.1,258.5c26.6,38.3,93.6,40.4,138.5,23s50.7-48.5,47.4-78.7s-30.8-92.2-95-100
			C153.1,91.5,127.1,218.3,155.1,258.5z"/>
		<path class="st9" d="M448,500H52v-6.1c0-101.4,82.2-183.6,183.6-183.6h28.8c101.4,0,183.6,82.2,183.6,183.6V500z"/>
		<linearGradient id="SVGID_1_" gradientUnits="userSpaceOnUse" x1="250.2822" y1="288.6842" x2="250.2822" y2="373.0117">
			<stop  offset="0" style="stop-color:#158962"/>
			<stop  offset="1" style="stop-color:#167251"/>
		</linearGradient>
		<path class="st2" d="M250,370.4c49.4,0,81.8-27.3,95.2-41.4c-24.4-12-51.8-18.7-80.8-18.7h-28.8c-28.8,0-56,6.6-80.2,18.4l0,0
			C155.4,328.7,183.6,370.4,250,370.4z"/>
		
			<linearGradient id="SVGID_00000114041456195771908710000010822467190831875248_" gradientUnits="userSpaceOnUse" x1="89.5804" y1="355.2837" x2="89.5804" y2="471.3124">
			<stop  offset="0" style="stop-color:#158962"/>
			<stop  offset="1" style="stop-color:#167251"/>
		</linearGradient>
		<path style="fill:url(#SVGID_00000114041456195771908710000010822467190831875248_);" d="M127.1,345.8
			C81.6,379.2,52,433.1,52,493.9v6.1h75.1V345.8z"/>
		
			<linearGradient id="SVGID_00000060747554573086447130000001244010476500612751_" gradientUnits="userSpaceOnUse" x1="410.4196" y1="343.0636" x2="410.4196" y2="481.2169">
			<stop  offset="0" style="stop-color:#158962"/>
			<stop  offset="1" style="stop-color:#167251"/>
		</linearGradient>
		<path style="fill:url(#SVGID_00000060747554573086447130000001244010476500612751_);" d="M372.9,345.8
			c45.5,33.4,75.1,87.3,75.1,148.1v6.1h-75.1V345.8z"/>
		
			<linearGradient id="SVGID_00000061449551782453499640000003448794620585335479_" gradientUnits="userSpaceOnUse" x1="144.541" y1="276.4186" x2="181.8886" y2="244.1117">
			<stop  offset="0" style="stop-color:#158962"/>
			<stop  offset="1" style="stop-color:#167251"/>
		</linearGradient>
		<path style="fill:url(#SVGID_00000061449551782453499640000003448794620585335479_);" d="M145,227.5c1.3,12.5,4.7,23.4,10,31.1
			c8.5,12.3,21.2,20.8,36,26.2C191.6,243.3,164.2,231,145,227.5z"/>
		
			<linearGradient id="SVGID_00000091004392195854178560000016058994179520000387_" gradientUnits="userSpaceOnUse" x1="339.8339" y1="265.5228" x2="303.861" y2="233.4451">
			<stop  offset="0" style="stop-color:#158962"/>
			<stop  offset="1" style="stop-color:#167251"/>
		</linearGradient>
		<path style="fill:url(#SVGID_00000091004392195854178560000016058994179520000387_);" d="M341.7,220.3
			c-15.3,3.6-45.4,16.2-40.2,57.9C331.5,264,340.7,242.7,341.7,220.3z"/>
		<g>
			<path class="st8" d="M230,88.9c0,0-0.9-11.1,9.4-12.7c10.4-1.7,11,12.7,11,12.7H230z"/>
			<path class="st9" d="M147.9,181c0,0,25.5,8.5,89.4,7.2c63.9-1.4,97.7-9.4,97.7-9.4s-0.3-38.5-8.5-52.1S264.7,81.5,239,84.1
				c-31.2,3.2-75.5,24.5-87,45.3C143.5,144.7,147.9,181,147.9,181z"/>
			<path class="st15" d="M303.4,179.4c-1.5-15.8-3.2-33.8-6.3-46.1c-6.3-25.1-19.2-37.9-31.1-44.4c-10.1-3.6-19.7-5.6-27-4.9
				c-3.8,0.4-7.7,1-11.7,1.9c-12.4,5.1-29.9,17.1-38.6,44.8c-5.6,17.8-7.2,41.8-7,55.7c1.1,0.1,2.3,0.2,3.5,0.3
				c-0.2-13.6,1.3-37.4,6.8-54.9c13.2-42.2,47.7-46,49.2-46.2l0.1,0c4.1,0,40.5,1,52.5,48.5c3,12.1,4.7,29.9,6.2,45.6
				c0.1,1.5,0.3,2.9,0.4,4.3c1.2-0.1,2.3-0.3,3.5-0.4C303.7,182.3,303.6,180.9,303.4,179.4z"/>
			<path class="st8" d="M217.5,176.2c0,0,26,2.5,50.6-2.1c0,0-0.7-29-27.4-26.7C220.5,149.1,216.6,163.8,217.5,176.2z"/>
			<path class="st15" d="M146.9,167.4L146.9,167.4c0.3,7.8,1,13.6,1,13.6s25.5,8.5,89.4,7.2c63.9-1.4,97.7-9.4,97.7-9.4
				s-0.1-6.4-0.7-15c-14.7,2.8-57,7-91.2,8.7C201,174.6,146.9,167.4,146.9,167.4z"/>
			<path class="st15" d="M268.2,186.8v-15.9c-0.9,0.1-1.9,0.2-2.9,0.2c-7.5,0.5-15.1,1-22.2,1.4c-7.6,0.4-15.7,0.5-23.7,0.3
				c-0.6,0-1.3,0-2,0l0,15.4h0c6.2,0.1,12.8,0,19.9-0.1c11.2-0.2,21.4-0.7,30.7-1.2C268,186.9,268.1,186.8,268.2,186.8z"/>
		</g>
	</g>
</g>
</svg>
