<?xml version="1.0" encoding="UTF-8"?><svg id="a" xmlns="http://www.w3.org/2000/svg" width="128" height="128" viewBox="0 0 128 128"><rect x="0" width="128" height="128" fill="#a1a1aa"/><path d="m37.00015,40.75h12.75l.8823-2.6472c.8169-2.4501,3.1095-4.1028,5.6922-4.1028h15.3507c2.5827,0,4.8753,1.6524,5.6922,4.1028l.8823,2.6472h12.75c1.2423,0,2.25,1.0077,2.25,2.25s-1.0077,2.25-2.25,2.25h-53.9997c-1.2423,0-2.25-1.0077-2.25-2.25s1.0077-2.25,2.25-2.25Zm45,53.25h-36c-3.3138,0-6-2.6862-6-6v-39h48v39c0,3.3138-2.6862,6-6,6Zm-27.75-39c0-1.2423-1.0077-2.25-2.25-2.25s-2.25,1.0077-2.25,2.25v27c0,1.2423,1.0077,2.25,2.25,2.25s2.25-1.0077,2.25-2.25v-27Zm12,0c0-1.2423-1.0077-2.25-2.25-2.25s-2.25,1.0077-2.25,2.25v27c0,1.2423,1.0077,2.25,2.25,2.25s2.25-1.0077,2.25-2.25v-27Zm12,0c0-1.2423-1.0077-2.25-2.25-2.25s-2.25,1.0077-2.25,2.25v27c0,1.2423,1.0077,2.25,2.25,2.25s2.25-1.0077,2.25-2.25v-27Z" fill="#fff"/></svg>