<?xml version="1.0" encoding="UTF-8"?><svg id="a" xmlns="http://www.w3.org/2000/svg" width="512" height="512" viewBox="0 0 512 512"><rect width="512" height="512" fill="#fef3c7"/><path d="m352.81327,163.31271l-16.55967,174.60438,34.08033,48.14266,55.64238,8.04599c-40.41851-47.21786-73.16304-230.79302-73.16304-230.79302Z" fill="#fbb03b"/><path d="m350.12119,174.0488c-2.13081-24.86267-28.94759-40.11936-28.94759-40.11936l-66.05361,177.99474,24.804,121.61823,102.0792-39.68415s-29.75121-194.94668-31.88202-219.80947Z" fill="#f7931e"/><path d="m231.35026,126.99381s-46.93332-17.07953-64.44467,39.70926c-17.51112,56.7888,11.30721,118.88474-14.12069,187.00222-25.4279,68.11748-58.20147,98.15388-58.20147,98.15388l128.19105-37.91864,27.34454-231.98076-18.76876-54.96596Z" fill="#f7931e"/><path d="m425.9763,394.10573c-28.50725-28.42996-107.8291-58.25182-107.8291-58.25182l-125.79604,9.05587s-59.33144,40.87945-64.84085,49.19595c-5.50941,8.3165-81.51031,117.89427-81.51031,117.89427h419.99998s-11.51644-89.46442-40.02368-117.89427Z" fill="#94a3b8"/><path d="m196.19444,361.43779l-29.7398,6.99269,21.36983,15.8924s-17.97368,11.77192-13.34961,18.96492c6.6748,10.38303,67.58858,35.75931,67.58858,35.75931l3.92733-3.02097-49.79634-74.58835Z" fill="#475569"/><path d="m340.56804,401.82941c.565-9.47514-14.833-29.2316-14.833-29.2316,0,0,26.69922-11.86633,24.72159-18.1796-.67791-2.16386-2.47442-4.70486-4.53422-7.11468-4.44459-1.94969-8.55698-3.69789-12.18073-5.20584l-7.86534,8.4627c-.565.70631-8.89966,39.41305-8.89966,39.41305l-102.6051,90.97517s125.63122-69.64406,126.19645-79.1192Z" fill="#475569"/><path d="m114.34963,428.0408c9.06402,5.15998,12.45426,7.05427,12.45426,7.05427l-17.79939,52.91684-6.21569,23.98809h7.20455s-2.27173-3.8501,3.19399-23.73268c5.15021-18.73487,18.10732-53.4938,16.54818-55.8534-2.72421-4.12252-13.28489-4.75666-16.09733-18.09987-1.40843,2.04025-2.88996,4.18572-4.43412,6.42105.81223,2.99973,2.35732,5.71835,5.14555,7.30569Z" fill="#475569"/><path d="m368.8489,457.83973c.10895-5.3276,57.1274-63.734,57.1274-63.734-.84122-.83901-1.73016-1.67918-2.65658-2.51981-6.48472,7.01655-56.11834,60.83973-56.64656,65.06503-.565,4.52049,1.75996,27.12361,1.75996,27.12361,0,0,.30671-20.60734.41578-25.93482Z" fill="#475569"/><path d="m321.00271,331.13635c-6.62771-4.33984-22.32383-8.42602-22.32383-8.42602l-37.57976,86.6393-46.72741,71.599s120.16039-76.13093,121.88189-79.11915c3.41807-5.93316-11.86051-29.58481-11.86051-29.58481,0,0,21.49424-11.70852,22.67315-18.43517,1.03983-5.93316-18.85897-17.95558-26.06352-22.67315Z" fill="#fff"/><path d="m220.94056,324.56749s-27.85074,10.90226-31.22392,14.14807c-3.37318,3.24581-24.67126,20.81519-23.18798,22.93418,1.48329,2.11899,22.88504,22.67315,22.88504,22.67315,0,0-14.13411,13.28336-12.14885,17.50659,4.5205,9.61642,64.98898,36.39619,64.98898,36.39619l6.64692-10.18487-27.9602-103.47331Z" fill="#fff"/><polygon points="101.08175 474.06359 101.08245 474.06289 101.08128 474.06359 101.08175 474.06359" fill="#fbb03b"/><path d="m243.48074,99.2138c-110.8173-2.43426-90.57895,162.88541-86.5648,189.73024.38761,2.5928.64765,5.19956.63391,7.82122-.46001,87.40497-97.15272,177.29833-97.15272,177.29833h21.53784c66.53061-65.49058,103.62359-177.20451,103.62359-177.20451-39.67239,131.20512-84.47613,177.20381-84.47613,177.20381,35.39122-27.90325,62.58397-64.996,77.86022-107.39609,34.88349-96.82284,23.3269-162.05758,23.3269-162.05758l41.21119-105.39542Z" fill="#fbb03b"/><path d="m311.72078,331.63078c-8.22686-11.30126-60.67362-8.97038-60.67362-8.97038l-32.772,4.23798s-14.73072,8.26399-16.08933,9.95923c-1.35861,1.69512,5.59989,11.74319,5.59989,11.74319l51.63522,60.74882,44.07298-64.56381s9.78942-11.00856,8.22686-13.15504Z" fill="#37355b"/><path d="m205.38302,224.30625s2.49514-7.25133-9.09638-15.0878c-11.59105-7.83647-18.30077,17.3243-11.59105,36.89371,6.70926,19.56941,20.10356,12.85992,25.14831,3.35475l-4.46089-25.16065Z" fill="#ffd6c0"/><path d="m280.52704,328.56929c-18.97262,1.51252-55.5679-21.41352-67.98675-37.69366-12.41885-16.28015-10.06989-71.87286-10.33241-84.17867-.26252-12.30581,14.15647-76.36448,41.13327-78.80397,26.97681-2.4395,77.67905-1.29212,87.46023,21.29314,9.78119,22.58526,3.08241,57.51083,4.69269,118.09813.47274,17.78717-28.69162,59.19033-54.96704,61.28504Z" fill="#ffd6c0"/><path d="m305.64431,208.54819c-2.46572,0-4.4646,1.99888-4.4646,4.4646v10.79902c0,2.46572,1.99888,4.4646,4.4646,4.4646s4.4646-1.99888,4.4646-4.4646v-10.79902c0-2.46572-1.99888-4.4646-4.4646-4.4646Z" fill="#37355b"/><path d="m245.65441,208.54819c-2.46572,0-4.4646,1.99888-4.4646,4.4646v10.79902c0,2.46572,1.99888,4.4646,4.4646,4.4646s4.4646-1.99888,4.4646-4.4646v-10.79902c0-2.46572-1.99888-4.4646-4.4646-4.4646Z" fill="#37355b"/><path d="m226.77446,200.69756c-.57147,0-1.12825-.29308-1.44092-.82047-.47024-.79516-.20655-1.82054.5878-2.29078,13.15363-7.7818,24.34221-7.35565,31.41213-5.62572,7.70424,1.88422,12.25234,5.62246,12.44174,5.78084.70944.59106.80496,1.64502.21389,2.35446-.59106.70944-1.6442.80414-2.35364.21553-.69719-.57555-16.86982-13.53815-40.01113.15348-.26696.15756-.56086.23267-.84986.23267Z" fill="#37355b"/><path d="m254.64258,273.48055c0,11.66241,9.45425,21.11666,21.11666,21.11666s21.11667-9.45425,21.11667-21.11666h-42.23333Z" fill="#37355b"/><path d="m284.32996,288.85519c-1.85181-2.7585-4.99865-4.57476-8.57073-4.57476s-6.71896,1.81621-8.57071,4.57471c2.53912,1.42113,5.45991,2.23887,8.57071,2.23887s6.0316-.81769,8.57073-2.23882Z" fill="#ed4a5e"/><path d="m321.73867,145.79575s-33.11699,69.0083-89.2568,69.0083c0,0,43.27738-7.84037,62.82254-61.72392,0,0-35.10272,64.55799-92.77016,61.72392,0,0-15.84559-68.44323,3.93161-100.65181,19.7772-32.20858,94.79815-3.39038,105.88308,3.39038,11.08493,6.78075,9.38974,28.25314,9.38974,28.25314Z" fill="#fbb03b"/><path d="m368.84886,457.83971s-1.07684,47.88767,0,54.16029h-14.07906s5.0448-34.11066,14.07906-54.16029Z" fill="#475569"/><path d="m352.81327,163.31271c-3.39421-28.81827-40.46437-45.77009-40.46437-45.77009l-14.34273,5.65061,12.10274,18.71771s21.14342,26.27547,23.49608,32.20858c2.3529,5.93322,9.88865,57.84832,31.07845,170.00887,21.1898,112.16067,69.50275,167.87161,69.50275,167.87161h31.81381c-96.1731-87.82378-109.79252-319.86914-113.18673-348.68729Z" fill="#fbb03b"/><path d="m279.07643,251.67439s19.49453-6.77276,20.62479-8.89974c1.13026-2.12698-4.17715-3.81417-7.34582-9.32354-3.16867-5.50936,4.5205-36.28936,4.5205-36.28936" fill="none" stroke="#dd8762" stroke-linecap="round" stroke-linejoin="round" stroke-width="2"/><path d="m296.87591,197.16175s7.68841-10.181,33.83764-1.61151" fill="none" stroke="#37355b" stroke-linecap="round" stroke-linejoin="round" stroke-width="2"/><path d="m297.0007,322.71033c-5.42188,3.27001-11.00905,5.42328-16.47377,5.85896-16.59203,1.32276-46.66078-16.04484-62.25177-31.31282.09824,17.7069-.09498,36.63157-2.05003,41.01378-1.8568,4.16244-4.95791,7.57504-8.43942,10.33056l40.35973,80.59733,55.34847-84.41232c-4.89669-6.55771-6.46342-13.81334-6.49322-22.07549Z" fill="#ffd6c0"/><path d="m296.91875,354.41821l6.57517-9.6324c-4.89669-6.55771-6.46342-13.81334-6.49322-22.07549-5.42188,3.27001-11.00905,5.42328-16.47377,5.85896-16.59203,1.32276-46.66078-16.04484-62.25177-31.31282.00978,1.76974.01536,3.55076.01816,5.32911,10.43637,11.06085,37.76973,36.71503,78.62543,51.83263Z" fill="#dd8762"/><polygon points="212.69353 480.94862 205.34771 512 201.10974 512 212.69353 480.94862" fill="#475569"/><path d="m187.40697,221.30226s-.14127-5.46932,4.23797-6.40757,9.60607,12.83516,8.54657,16.86123c-1.05949,4.02607-6.39314,4.23797-4.25606,5.50936,2.13708,1.27139,6.22832,7.62835,4.39459,13.13771-1.83372,5.50936-7.55498,2.75468-8.82637,0" fill="none" stroke="#dd8762" stroke-linecap="round" stroke-linejoin="round"/><circle cx="196.5266" cy="258.72824" r="8.95112" fill="#fff"/><circle cx="196.5266" cy="258.72824" r="3.80344" fill="#37355b"/></svg>