<?xml version="1.0" encoding="utf-8"?>
<!-- Generator: Adobe Illustrator 27.7.0, SVG Export Plug-In . SVG Version: 6.00 Build 0)  -->
<svg version="1.1" id="a" xmlns="http://www.w3.org/2000/svg" xmlns:xlink="http://www.w3.org/1999/xlink" x="0px" y="0px"
	 viewBox="0 0 24 24" style="enable-background:new 0 0 24 24;" xml:space="preserve">
<style type="text/css">
	.st0{fill:#325EEA;}
</style>
<path class="st0" d="M19.7,0H4.3C1.9,0,0,1.9,0,4.3v15.5C0,22.1,1.9,24,4.3,24h15.5c2.4,0,4.3-1.9,4.3-4.3V4.3C24,1.9,22.1,0,19.7,0
	L19.7,0z M20,9.7c0,2.8-2.3,5.1-5.1,5.1h-3.5l0.4-4.3c0-0.1,0.1-0.2,0.3-0.2h1.6c0.3,0.9,1.2,1.4,2.1,1.1c0.7-0.2,1.2-1,1.2-1.7
	c0-0.9-0.8-1.7-1.7-1.7c-0.7,0-1.4,0.5-1.6,1.2h-2.4c-0.3,0-0.5,0.2-0.6,0.5l-0.9,9.6l0,0v0.1H5.6c-0.3,0-0.6-0.3-0.6-0.6
	c0,0,0,0,0-0.1L6.3,5.1c0-0.3,0.3-0.5,0.6-0.5h8C17.7,4.6,20,6.9,20,9.7L20,9.7L20,9.7z"/>
</svg>
