<?xml version="1.0" encoding="UTF-8"?><svg id="a" xmlns="http://www.w3.org/2000/svg" width="24" height="24" viewBox="0 0 24 24"><path d="m22.5,11.5c0,.2764-.2236.5-.5.5h-5c-.2197,0-.4131-.1436-.4775-.3525l-1.5049-4.8896-3.5371,12.3799c-.0576.2041-.2383.3486-.4502.3613-.0107.001-.0205.001-.0303.001-.2002,0-.3828-.1201-.4609-.3057l-3.5273-8.3779-1.5479,3.8691c-.0752.1904-.2598.3145-.4639.3145h-3c-.2764,0-.5-.2236-.5-.5s.2236-.5.5-.5h2.6611l1.875-4.6855c.0752-.1885.2568-.3125.459-.3145h.0049c.2012,0,.3828.1201.4609.3057l3.4482,8.1914,3.6104-12.6348c.0605-.2129.2539-.3604.4756-.3623.2324-.0332.418.1416.4824.3525l1.8916,6.1475h4.6309c.2764,0,.5.2236.5.5Z"/></svg>