<?xml version="1.0" encoding="UTF-8"?><svg id="a" xmlns="http://www.w3.org/2000/svg" width="24" height="24" viewBox="0 0 24 24"><path d="m3.5,4v14c0,.8271.6729,1.5,1.5,1.5h16c.2764,0,.5.2236.5.5s-.2236.5-.5.5H5c-1.3784,0-2.5-1.1216-2.5-2.5V4c0-.2764.2236-.5.5-.5s.5.2236.5.5Zm4,12v-4c0-.2764-.2236-.5-.5-.5s-.5.2236-.5.5v4c0,.2764.2236.5.5.5s.5-.2236.5-.5Zm4,0v-8c0-.2764-.2236-.5-.5-.5s-.5.2236-.5.5v8c0,.2764.2236.5.5.5s.5-.2236.5-.5Zm4,0v-6c0-.2764-.2236-.5-.5-.5s-.5.2236-.5.5v6c0,.2764.2236.5.5.5s.5-.2236.5-.5Zm4,0V6c0-.2764-.2236-.5-.5-.5s-.5.2236-.5.5v10c0,.2764.2236.5.5.5s.5-.2236.5-.5Z"/></svg>