<?xml version="1.0" encoding="UTF-8"?><svg id="a" xmlns="http://www.w3.org/2000/svg" width="24" height="24" viewBox="0 0 24 24"><path d="m18.7,15c-1.1,4.3-5.5,6.8-9.7,5.7-4.3-1.1-6.8-5.5-5.7-9.7.7-2.8,2.9-5,5.7-5.7v7.7c0,1.1.9,2,2,2h7.7Z" fill="#60a5fa"/><path d="m21,13h-10V3c5.5,0,10,4.5,10,10Z" fill="#dbeafe"/><path d="m19.3,15c-1.1,4.6-5.7,7.4-10.3,6.3S1.6,15.6,2.7,11c.8-3.1,3.2-5.5,6.3-6.3v1c-4,1.2-6.3,5.3-5.2,9.3,1.1,4,5.2,6.3,9.2,5.2,2.5-.7,4.5-2.7,5.2-5.2,0,0,1.1,0,1.1,0Zm2.2-2c0,.3-.2.5-.5.5h-10c-.3,0-.5-.2-.5-.5V3c0-.3.2-.5.5-.5,5.8,0,10.5,4.7,10.5,10.5Zm-1-.5c-.3-4.9-4.1-8.7-9-9v9h9Z" fill="#1d4ed8"/></svg>