<?xml version="1.0" encoding="UTF-8"?><svg id="a" xmlns="http://www.w3.org/2000/svg" width="24" height="24" viewBox="0 0 24 24"><path d="m21.1,13.9l-1.6-.9c-.3-.3-.5-.6-.5-1h0c0-.4.2-.7.5-.9l1.6-.9c.5-.3.6-.9.4-1.4l-2-3.4c-.3-.5-.9-.6-1.4-.4l-1.7,1c-.3.2-.7.2-1,0h0c-.2-.2-.4-.5-.4-.9v-2.1c0-.6-.4-1-1-1h-4c-.6,0-1,.4-1,1v2.1c0,.4-.2.7-.5.9h0c-.3.2-.7.2-1,0l-1.7-1c-.5-.3-1.1-.1-1.3.4l-2,3.4c-.3.5-.1,1.1.4,1.4l1.6.9c.3.2.5.5.5.9h0c0,.4-.2.7-.5.9l-1.6.9c-.5.3-.6.9-.4,1.4l2,3.4c.3.5.9.6,1.4.4l1.7-1c.3-.2.7-.2,1,0h0c.2.2.4.5.4.9v2.1c0,.6.4,1,1,1h4c.6,0,1-.4,1-1v-2.1c0-.4.2-.7.5-.9h0c.3-.2.7-.2,1,0l1.7,1c.5.3,1.1.1,1.4-.4l2-3.4c.2-.4,0-1.1-.5-1.3h0Zm-9.1,1.1c-1.7,0-3-1.3-3-3s1.3-3,3-3,3,1.3,3,3-1.3,3-3,3Z" fill="#60a5fa"/><path d="m2.6,13.4c-.3.2-.6.6-.7.9-.1.4-.1.8.1,1.1l2,3.4c.4.7,1.3,1,2,.5l1.7-1c.1-.1.3-.1.5,0s.3.3.3.4v2.3c0,.8.7,1.5,1.5,1.5h4c.8,0,1.5-.7,1.5-1.5v-2.1c0-.2.1-.3.3-.4s.4-.1.5,0l1.7,1c.7.4,1.6.2,2-.5l2-3.4c.2-.3.3-.8.2-1.1-.1-.4-.4-.7-.7-.9l-1.6-.9c-.2-.1-.3-.3-.3-.5s.1-.4.3-.5l1.6-.9c.3-.2.6-.5.7-.9s.1-.8-.1-1.1l-2-3.4c-.4-.7-1.3-1-2-.5l-1.7,1c-.1.1-.3.1-.5,0-.2-.1-.3-.3-.3-.4v-2.5c0-.8-.7-1.5-1.5-1.5h-4c-.9,0-1.6.7-1.6,1.5v2.1c0,.2-.1.3-.3.4s-.4.1-.5,0l-1.7-1c-.6-.3-1.6-.1-2,.6l-2,3.4c-.1.4-.2.8-.1,1.2.1.3.4.7.7.9l1.6.9c.2.1.2.3.2.5s-.1.4-.2.5l-1.6.9h0Zm2.2-2.8l-1.7-.9c-.1-.1-.2-.2-.2-.3s0-.3.1-.4l2-3.4c0-.2.3-.3.6-.1l1.7,1c.5.3,1,.3,1.5,0s.8-.8.8-1.3v-2.2c0-.3.2-.5.5-.5h4c.3,0,.5.2.5.5v2.1c0,.5.3,1,.8,1.3.5.3,1,.3,1.5,0l1.7-1c.2-.1.5-.1.7.2l2,3.4c.1.1.1.2,0,.4,0,.1-.1.2-.2.3l-1.6.9c-.5.3-.8.8-.8,1.4s.3,1.1.8,1.4l1.6.9h0c.1.1.2.2.2.3s0,.3-.1.4l-2,3.4c-.1.2-.4.3-.7.2l-1.7-1c-.5-.3-1-.3-1.5,0s-.8.8-.8,1.3v2.1c0,.3-.2.5-.5.5h-4c-.3,0-.5-.2-.5-.5v-2.1c0-.5-.3-1-.8-1.3-.2-.1-.5-.2-.8-.2-.2,0-.5.1-.7.2l-1.7,1c-.2.1-.5.1-.7-.2l-2-3.4c-.1-.1-.1-.2,0-.4,0-.1.1-.2.2-.3l1.6-.9c.5-.3.7-.8.7-1.4.2-.6-.1-1.1-.5-1.4h0Zm7.2,4.9c1.9,0,3.5-1.6,3.5-3.5s-1.6-3.5-3.5-3.5-3.5,1.6-3.5,3.5,1.6,3.5,3.5,3.5Zm0-6c1.4,0,2.5,1.1,2.5,2.5s-1.1,2.5-2.5,2.5-2.5-1.1-2.5-2.5,1.1-2.5,2.5-2.5Z" fill="#1d4ed8"/></svg>