<?xml version="1.0" encoding="UTF-8"?><svg id="a" xmlns="http://www.w3.org/2000/svg" width="24" height="24" viewBox="0 0 24 24"><path d="m20,10.5v8.5c0,1.1-.9,2-2,2H6c-1.1,0-2-.9-2-2v-8.5c0-1.3.6-2.4,1.6-3.2l5.2-3.9c.7-.5,1.7-.5,2.4,0l5.2,3.9c1,.8,1.6,1.9,1.6,3.2Z" fill="#60a5fa"/><path d="m9.3,20.9v-4.4c0-1.5,1.2-2.7,2.7-2.7s2.7,1.2,2.7,2.7v4.4" fill="#dbeafe"/><path d="m6,21.5h12c1.4,0,2.5-1.1,2.5-2.5v-8.5c0-1.4-.7-2.8-1.8-3.6h0l-5.2-3.9c-.9-.7-2.1-.7-3,0l-5.2,3.9c-1.1.8-1.8,2.2-1.8,3.6v8.5c0,1.4,1.1,2.5,2.5,2.5Zm8.2-1h-4.4v-4c0-1.2,1-2.2,2.2-2.2s2.2,1,2.2,2.2v4ZM4.5,10.5c0-1.1.5-2.1,1.4-2.8l5.2-3.9c.3-.2.6-.3.9-.3s.6.1.9.3l5.2,3.9c.9.7,1.4,1.7,1.4,2.8v8.5c0,.8-.7,1.5-1.5,1.5h-2.8v-4c0-1.8-1.4-3.2-3.2-3.2s-3.2,1.4-3.2,3.2v4h-2.8c-.8,0-1.5-.7-1.5-1.5v-8.5Z" fill="#1d4ed8"/></svg>