<?xml version="1.0" encoding="UTF-8"?><svg id="a" xmlns="http://www.w3.org/2000/svg" width="24" height="24" viewBox="0 0 24 24"><path d="m12,15.5c1.9297,0,3.5-1.5703,3.5-3.5s-1.5703-3.5-3.5-3.5-3.5,1.5703-3.5,3.5,1.5703,3.5,3.5,3.5Zm0-6c1.3784,0,2.5,1.1216,2.5,2.5s-1.1216,2.5-2.5,2.5-2.5-1.1216-2.5-2.5,1.1216-2.5,2.5-2.5Zm-9.3833,3.9312c-.3477.2002-.5957.5239-.6997.9111-.1035.3867-.0503.791.1499,1.1377l1.9526,3.3828c.415.7153,1.335.9629,2.0493.5488l1.6602-.959c.1416-.084.3276-.0752.5068.0283.1655.0952.2642.251.2642.417v2.1021c0,.8271.6729,1.5,1.5,1.5h4c.8271,0,1.5-.6729,1.5-1.5v-2.1021c0-.166.0986-.3218.2749-.4233.168-.0972.3521-.105.4961-.022l1.6606.959c.7163.4131,1.6348.1675,2.0488-.5493l1.9521-3.3818c.2007-.3472.2539-.7515.1504-1.1382-.1035-.3872-.3521-.7109-.6992-.9111l-1.6201-.9355c-.1738-.1001-.2817-.2871-.2812-.5039-.0005-.2002.1074-.3872.2812-.4873l1.6196-.9355c.3477-.2002.5957-.5239.6997-.9111.1035-.3867.0503-.791-.1499-1.1377l-1.9526-3.3823c-.4136-.7148-1.3325-.9629-2.0493-.5493l-1.6602.959c-.1426.0825-.3286.0747-.5068-.0283-.1655-.0952-.2642-.251-.2642-.417v-2.1021c0-.8271-.6729-1.5-1.5-1.5h-4c-.8271,0-1.5.6729-1.5,1.5v2.1021c0,.166-.0986.3218-.2749.4233-.168.0962-.3521.105-.4961.022l-1.6606-.959c-.7163-.4126-1.6348-.166-2.0488.5493l-1.9521,3.3818c-.2007.3472-.2539.7515-.1504,1.1382.104.3872.3521.7109.6992.9111l1.6377.9458c.1548.0894.2476.2681.2471.4922.0005.2104-.0923.3892-.2471.4785l-1.6372.9458Zm2.1372-2.7827l-1.6382-.9458c-.1152-.0669-.1982-.1743-.2329-.3037-.0342-.1289-.0166-.2632.0503-.3789l1.9526-3.3823c.1372-.2397.4443-.3223.6831-.1831l1.6602.959c.457.2627,1.0161.2549,1.5068-.0283.4785-.2759.7642-.7559.7642-1.2832v-2.1021c0-.2759.2241-.5.5-.5h4c.2759,0,.5.2241.5.5v2.1021c0,.5273.2856,1.0073.7739,1.2886.48.2778,1.0391.2866,1.4971.0229l1.6597-.959c.2393-.1372.5464-.0557.6836.1831l1.9531,3.3828c.0664.1152.084.2495.0498.3784-.0347.1294-.1177.2368-.2334.3037l-1.6201.9355c-.4824.2788-.7817.7979-.7812,1.3691-.0005.5566.2988,1.0757.7812,1.3545l1.6201.9355h.0005c.1152.0669.1982.1743.2329.3037.0342.1289.0166.2632-.0503.3789l-1.9526,3.3818c-.1372.2393-.4429.3228-.6831.1836l-1.6602-.959c-.4585-.2637-1.0166-.2554-1.5068.0283-.4785.2759-.7642.7559-.7642,1.2832v2.1021c0,.2759-.2241.5-.5.5h-4c-.2759,0-.5-.2241-.5-.5v-2.1021c0-.5273-.2856-1.0073-.7739-1.2886-.2471-.1431-.5146-.2148-.7793-.2148-.2495,0-.4956.064-.7178.1919l-1.6597.959c-.2393.1377-.5464.0552-.6836-.1831l-1.9531-3.3828c-.0664-.1152-.084-.2495-.0498-.3784.0347-.1294.1177-.2368.2334-.3037l1.6377-.9458c.4688-.271.748-.7739.7471-1.3574.001-.5718-.2783-1.0747-.7471-1.3457Z"/></svg>